<svg width="83" height="74" viewBox="0 0 83 74" fill="none" xmlns="http://www.w3.org/2000/svg">
<g filter="url(#filter0_d_4_2596)">
<path d="M4 27.8143C4 34.5345 9.53199 40.0714 16.1875 40.0714H21.4093C21.6588 41.1998 22.049 42.2919 22.5707 43.3219C22.2035 46.5639 23.0839 49.9481 24.9123 52.5724C25.0791 60.3048 30.3905 66 39.552 66H42.672C51.4703 66 57.1024 60.1071 61.3048 60.1071H61.6972C62.5391 60.8367 63.68 61.2857 64.9375 61.2857L74.3125 61.2857C76.9013 61.2857 79 59.3862 79 57.0429L79 23.1C79 20.7567 76.9013 18.8571 74.3125 18.8571H64.9375C63.68 18.8571 62.5391 19.3062 61.6972 20.0357H61.3048C60.2847 20.0357 59.1277 19.1234 56.8835 16.5489L56.8646 16.5271L56.8454 16.5056C55.5481 15.0417 54.1916 13.4353 53.0586 11.6067C50.3187 7.15054 48.6066 0 41.9688 0C33.6297 0 28.4922 5.19838 28.4922 12.2571C28.4922 13.4395 28.6115 14.539 28.811 15.5571L16.1875 15.5571C9.58121 15.5571 4 21.1702 4 27.8143ZM11.0313 27.8143C11.0313 25.0594 13.4885 22.6286 16.1875 22.6286L39.3907 22.6286C39.3907 20.0762 35.5235 17.4429 35.5235 12.2571C35.5235 8.36786 38.5447 7.07143 41.9688 7.07143C43.257 7.07143 44.9637 11.8906 47.0849 15.3362C48.4142 17.4834 49.9449 19.347 51.5965 21.2106C53.9562 23.9175 56.553 26.6074 60.2501 27.0439V53.0833C53.982 53.6378 49.3357 58.9286 42.672 58.9286H39.552C33.6158 58.9286 31.1842 55.6585 32.1397 49.8941C29.9993 48.7154 28.602 44.8882 30.2464 41.994C27.4097 39.309 27.6409 35.1611 29.5213 33L16.1875 33C13.408 33 11.0313 30.6097 11.0313 27.8143ZM69.6251 48.3214C71.5668 48.3214 73.1408 49.9044 73.1408 51.8571C73.1408 53.8099 71.5668 55.3929 69.6251 55.3929C67.6835 55.3929 66.1095 53.8099 66.1095 51.8571C66.1095 49.9044 67.6835 48.3214 69.6251 48.3214Z" fill="white"/>
</g>
<defs>
<filter id="filter0_d_4_2596" x="0" y="0" width="83" height="74" filterUnits="userSpaceOnUse" color-interpolation-filters="sRGB">
<feFlood flood-opacity="0" result="BackgroundImageFix"/>
<feColorMatrix in="SourceAlpha" type="matrix" values="0 0 0 0 0 0 0 0 0 0 0 0 0 0 0 0 0 0 127 0" result="hardAlpha"/>
<feOffset dy="4"/>
<feGaussianBlur stdDeviation="2"/>
<feComposite in2="hardAlpha" operator="out"/>
<feColorMatrix type="matrix" values="0 0 0 0 0 0 0 0 0 0 0 0 0 0 0 0 0 0 0.25 0"/>
<feBlend mode="normal" in2="BackgroundImageFix" result="effect1_dropShadow_4_2596"/>
<feBlend mode="normal" in="SourceGraphic" in2="effect1_dropShadow_4_2596" result="shape"/>
</filter>
</defs>
</svg>
