<svg width="107" height="154" viewBox="0 0 107 154" fill="none" xmlns="http://www.w3.org/2000/svg">
<g filter="url(#filter0_d_4_1431)">
<path d="M20.5461 74.0962L13.0932 86.071L5.29877 70.8902L7.06416 69.3163L20.5461 74.0962Z" fill="#6CADAB"/>
<path d="M7.05588 69.3163L5.29877 70.8902L5.65684 71.598C8.18039 73.3984 10.9983 74.7453 13.9842 75.5785C15.6167 76.0611 17.2887 76.3983 18.9806 76.5861L20.5379 74.0879L7.05588 69.3163Z" fill="#71CCC7"/>
<path d="M46.9189 7.01944L48.7759 1.34019C48.8992 0.964775 49.1338 0.635748 49.4485 0.396757C49.7633 0.157765 50.1432 0.0201048 50.538 0.00203818C50.9327 -0.0160284 51.3237 0.0863536 51.6589 0.2956C51.9941 0.504847 52.2578 0.811067 52.4149 1.17364L55.1046 7.37751L46.9189 7.01944Z" fill="#563A44"/>
<path d="M57.9942 7.80222L60.9088 2.5893C61.1004 2.24266 61.3934 1.96293 61.7486 1.78771C62.1038 1.61248 62.5041 1.55015 62.8957 1.60907C63.2873 1.668 63.6516 1.84537 63.9395 2.11736C64.2274 2.38934 64.4252 2.74291 64.5062 3.13058L65.9552 9.72584L57.9942 7.80222Z" fill="#563A44"/>
<path d="M37.3174 11.3913L36.4847 5.47056C36.4342 5.08013 36.5031 4.68354 36.6824 4.33304C36.8616 3.98255 37.1429 3.69458 37.4891 3.50707C37.8353 3.31956 38.2301 3.2413 38.6216 3.28261C39.0131 3.32392 39.383 3.48285 39.6824 3.73848L44.8703 8.14364L37.3174 11.3913Z" fill="#563A44"/>
<path d="M20.4129 45.2086C17.6899 43.2101 14.4172 48.4813 16.2492 50.6631C18.0812 52.8448 22.4364 54.4853 22.4364 54.4853L20.4129 45.2086Z" fill="#FABE82"/>
<path d="M19.8883 46.6909C18.0396 45.4252 15.6746 48.5313 16.8987 49.8803C18.1229 51.2293 21.1124 52.3035 21.1124 52.3035L19.8883 46.6909Z" fill="#EFA16C"/>
<path d="M20.4545 47.965C19.3637 47.2239 17.9563 49.0476 18.6975 49.8387C19.4341 50.4649 20.2814 50.9479 21.1957 51.2626L20.4545 47.965Z" fill="#FABE82"/>
<path d="M63.0989 38.0388C61.6666 39.3712 70.1355 41.7278 70.9349 41.2532C71.7343 40.7785 66.2799 35.0909 63.0989 38.0388Z" fill="#684A56"/>
<path d="M42.0724 37.6308C42.5886 35.7488 34.1447 38.2054 33.745 39.0298C33.3453 39.8542 40.9315 41.8444 42.0724 37.6308Z" fill="#684A56"/>
<path d="M30.1559 123.286C30.1559 123.286 34.9691 81.9323 38.9746 76.3696C42.98 70.8069 62.1246 74.1462 63.0406 75.1788C70.835 83.9225 78.0299 123.019 78.0299 123.019C59.5598 134.411 44.0959 112.452 30.1559 123.286Z" fill="#71CCC7"/>
<path d="M30.947 123.286C30.947 123.286 37.7838 82.3986 41.656 76.8359C45.5282 71.2732 60.4508 75.1704 61.3335 76.2114C68.8697 84.9551 77.1555 123.777 77.1555 123.777C59.2766 135.169 44.429 112.452 30.947 123.286Z" fill="#41847D"/>
<path d="M62.3578 76.3446C62.3578 76.3446 78.0964 85.4214 90.6707 75.7034L92.6526 77.8435C92.6526 77.8435 83.0762 90.2763 62.4244 83.631L62.3578 76.3446Z" fill="#4C3039"/>
<path d="M90.6707 75.77C89.838 76.7693 80.8112 87.1119 62.3578 82.0238V83.6893C83.0096 90.3512 92.586 77.9018 92.586 77.9018L90.6707 75.77Z" fill="#3A222B"/>
<path d="M83.2011 75.3287L88.6805 87.853L97.7989 73.5216L96.35 71.8062L83.2011 75.3287Z" fill="#6CADAB"/>
<path d="M85.7993 81.2744C88.7879 80.3012 91.4369 78.4957 93.4354 76.0698C94.5091 74.813 95.4005 73.4113 96.0835 71.9061L83.1761 75.3287L85.7993 81.2744Z" fill="#71CCC7"/>
<path d="M95.6172 72.4974C94.7844 70.9568 95.334 67.2594 97.2077 66.8431C99.0813 66.4267 100.472 68.1588 100.68 69.5078C100.888 70.8569 97.4908 76.1364 95.6172 72.4974Z" fill="#4C3039"/>
<path d="M41.5394 107.855C43.4464 111.344 62.3578 109.812 64.856 107.456C67.3542 105.099 70.1355 78.8927 59.0768 75.287C55.5793 74.1378 42.164 73.6632 41.2146 76.2946C40.2653 78.9261 38.3667 102.159 41.5394 107.855Z" fill="#4C3039"/>
<path d="M30.3974 139.741C28.2573 129.973 29.9227 120.921 31.5882 117.348C33.2537 113.776 41.123 105.907 40.8815 100.694L64.1981 99.9776C64.1981 104.025 73.9661 108.796 78.9708 116.89C83.9756 124.985 83.2594 138.542 83.2594 138.542H81.3524C81.3524 138.542 76.356 119.722 72.5337 117.34C68.7115 114.959 62.9323 113.326 54.4301 114.476C45.6114 115.666 31.7964 115.666 32.271 139.458L30.3974 139.741Z" fill="#4C3039"/>
<path d="M70.9016 115.891C67.096 113.51 61.3002 111.877 52.798 113.027C43.9793 114.217 30.1642 114.217 30.6389 138.009L30.081 138.084C30.1726 138.625 30.2808 139.166 30.3974 139.707L32.3044 139.466C31.8297 115.641 45.6281 115.641 54.4635 114.484C62.5993 113.385 68.2452 114.834 72.0591 117.04C71.7435 116.592 71.3518 116.204 70.9016 115.891Z" fill="#3A222B"/>
<path d="M79.0125 116.865C75.5066 111.195 69.6692 107.164 66.5214 103.858C65.1558 102.442 64.5895 102.193 65.9052 103.433C69.2362 106.54 74.2325 110.312 77.3886 115.408C82.385 123.511 81.6772 137.059 81.6772 137.059H81.0277C81.2858 137.967 81.4357 138.517 81.4357 138.517H83.3427C83.3427 138.517 84.0089 124.968 79.0125 116.865Z" fill="#3A222B"/>
<path d="M38.5332 105.998L51.4989 115.558L57.7944 115.033L69.3111 105.748L67.1293 101.868L39.2577 102.925L38.5332 105.998Z" fill="#71CCC7"/>
<path d="M56.7035 108.955C52.6695 110.223 48.4189 110.654 44.2125 110.22L51.449 115.558L57.7527 115.033L69.2694 105.748L67.8455 103.25C64.5571 105.888 60.7661 107.829 56.7035 108.955Z" fill="#5BB5AF"/>
<path d="M43.7878 75.5118C43.7878 75.5118 27.3413 84.4887 14.6421 74.6791L12.5519 76.8109C12.5519 76.8109 22.0867 89.3519 43.513 82.8399L43.7878 75.5118Z" fill="#4C3039"/>
<path d="M22.0617 125.476C22.0617 125.476 30.1643 134.053 29.6813 140.723C29.5814 142.172 23.7272 145.253 23.7272 145.253H33.9698C33.9698 145.253 32.0629 129.29 38.4999 126.434L22.0617 125.476Z" fill="#71CCC7"/>
<path d="M38.4999 126.4L30.4307 125.934C31.8363 128.456 32.5624 131.299 32.5375 134.186C32.6446 138.279 31.1232 142.248 28.3072 145.22H33.9698C33.9698 145.22 32.0628 129.257 38.4999 126.4Z" fill="#6CADAB"/>
<path d="M89.1219 126.875C89.1219 126.875 82.6598 134.836 83.8173 141.031C84.0672 142.372 89.7464 145.195 89.7464 145.195H80.2948C80.2948 145.195 80.4031 130.389 74.2159 127.708L89.1219 126.875Z" fill="#71CCC7"/>
<path d="M89.7464 145.22C89.7464 145.22 84.0672 142.364 83.8174 141.056C82.6599 134.869 89.1219 126.9 89.1219 126.9L82.46 127.291C82.8427 129.227 83.0323 131.197 83.0262 133.17C83.0262 137.984 81.952 142.28 80.2699 145.145V145.245L89.7464 145.22Z" fill="#6CADAB"/>
<path d="M64.7061 75.4452C64.7061 73.7298 59.3016 72.4474 52.6398 72.5806C45.9779 72.7139 40.5817 74.2461 40.5817 75.9116C40.5817 77.577 45.9862 78.9011 52.6398 78.7762C59.2933 78.6513 64.7061 77.1773 64.7061 75.4452Z" fill="#71CCC7"/>
<path d="M55.1629 66.5433L48.4261 66.9014L48.8508 74.9123C50.2665 76.2697 54.5051 76.3279 55.5959 74.5542L55.1629 66.5433Z" fill="#FABE82"/>
<path d="M40.4013 103.38L40.3914 104.762L43.0894 104.781L43.0993 103.399L40.4013 103.38Z" fill="#FFF27B"/>
<path d="M47.5892 103.196L44.8945 103.33L44.963 104.71L47.6577 104.577L47.5892 103.196Z" fill="#FFF27B"/>
<path d="M52.2603 102.956L49.5655 103.09L49.634 104.471L52.3288 104.337L52.2603 102.956Z" fill="#FFF27B"/>
<path d="M56.9976 102.737L54.3028 102.869L54.3708 104.25L57.0656 104.117L56.9976 102.737Z" fill="#FFF27B"/>
<path d="M61.7252 102.654L59.0304 102.787L59.0984 104.167L61.7932 104.035L61.7252 102.654Z" fill="#FFF27B"/>
<path d="M66.6526 102.334L63.9579 102.469L64.0266 103.849L66.7214 103.715L66.6526 102.334Z" fill="#FFF27B"/>
<path d="M56.2288 81.6491L50.3997 86.429L54.0471 87.9696L49.2589 91.9251L52.5898 93.4906L47.5851 98.3205L55.9374 93.4573L51.832 91.7335L59.9845 87.345L53.8972 85.7628L56.2288 81.6491Z" fill="#FFF27B"/>
<g style="mix-blend-mode:multiply" opacity="0.5">
<path d="M67.2209 78.4764C66.2633 78.1516 65.4139 77.8185 64.7227 77.5104C64.4951 77.144 64.2703 76.7943 64.0482 76.4612C64.2293 76.3538 64.3834 76.2064 64.4989 76.0303C64.6144 75.8542 64.6881 75.6541 64.7144 75.4452C64.7144 73.988 60.7839 72.8388 55.496 72.614L55.3794 70.3739C54.097 70.3073 52.7647 70.274 51.399 70.274C50.458 70.274 49.5253 70.274 48.6176 70.3239L48.7508 72.8221C46.8618 72.9972 44.9969 73.374 43.1882 73.9463C42.0877 74.0538 41.0398 74.4695 40.1648 75.1456C39.2899 75.8216 38.6234 76.7308 38.2417 77.7686C37.409 78.0184 36.5263 78.2599 35.577 78.4764C45.0952 86.0959 62.2662 84.9551 67.2209 78.4764Z" fill="#66493D"/>
</g>
<path d="M27.1497 70.5155C23.2525 62.1465 10.4284 26.6803 33.6034 13.9561H73.8245C73.8245 13.9561 98.6649 41.7778 74.1992 70.5155H27.1497Z" fill="#4C3039"/>
<path d="M29.3065 70.5155C25.7424 62.1465 14.0092 26.6803 35.2107 13.9561H72.0175C72.0175 13.9561 94.7512 41.7778 72.3589 70.5155H29.3065Z" fill="#3A232B"/>
<path d="M21.5538 40.9284C22.6446 57.25 32.2794 72.1226 51.7404 71.7396C75.2068 71.3066 82.1102 53.6109 82.4766 41.0949C82.8014 29.7614 75.5066 7.43581 51.7404 7.72727C36.9677 7.92712 20.1381 20.4848 21.5538 40.9284Z" fill="#FABE82"/>
<path d="M81.2192 51.1877H23.136L25.6342 56.4672H78.6128L81.2192 51.1877Z" fill="#EFA26F"/>
<path style="mix-blend-mode:multiply" opacity="0.3" d="M21.5538 40.9284C22.6446 57.25 32.2794 72.1226 51.7404 71.7396C75.2068 71.3066 82.1102 53.6109 82.4766 41.0949C82.8014 29.7614 75.5066 7.43581 51.7404 7.72727C36.9677 7.92712 20.1381 20.4848 21.5538 40.9284Z" fill="url(#paint0_linear_4_1431)"/>
<path d="M22.603 55.1598H81.5107C83.1761 50.7463 84.9165 46.1829 85.0331 42.1275C85.3912 29.7864 77.4636 5.4872 51.6572 5.79531C35.6686 5.99517 17.3984 19.6687 18.889 41.9277C19.2055 46.5327 21.0208 51.0295 22.603 55.1598Z" fill="#4C3039"/>
<path d="M19.9466 47.5986C24.1949 39.8606 30.4573 33.416 38.0703 28.9476C45.6833 24.4792 54.3633 22.1534 63.1905 22.2169C69.5193 22.2112 75.792 23.4036 81.6772 25.731C77.2637 15.4134 68.0953 5.62878 51.6572 5.82864C35.6686 6.02849 17.3984 19.702 18.889 41.961C19.0483 43.8714 19.4027 45.7604 19.9466 47.5986Z" fill="#563A44"/>
<path d="M21.304 43.1185C20.9625 21.3841 37.3757 8.26855 52.6231 7.01945H52.5565C37.5672 6.4865 19.8134 18.4779 20.2048 39.4128C20.2594 41.2207 20.5022 43.018 20.9292 44.7756C21.0625 44.5508 21.2124 44.326 21.3539 44.1011C21.3317 43.7736 21.3151 43.446 21.304 43.1185Z" fill="#684A56"/>
<path d="M83.6175 45.2086C86.199 43.2101 89.2967 48.4813 87.573 50.663C85.8492 52.8448 81.7438 54.4853 81.7438 54.4853L83.6175 45.2086Z" fill="#FABE82"/>
<path d="M83.9422 46.3661C85.8658 44.8672 88.1808 48.8144 86.8984 50.4465C85.616 52.0787 82.5266 53.3028 82.5266 53.3028L83.9422 46.3661Z" fill="#EFA16C"/>
<path d="M83.2927 47.8901C84.4252 47.0573 85.7909 49.3307 85.0331 50.2883C84.2978 51.013 83.4222 51.5797 82.46 51.9538L83.2927 47.8901Z" fill="#FABE82"/>
<path d="M89.4383 126.8L73.9328 127.524V129.19L89.4383 128.465V126.8Z" fill="#FFF27B"/>
<path d="M38.5416 126.175L21.4705 125.234V126.9L38.5416 127.841V126.175Z" fill="#FFF27B"/>
<path d="M44.4706 60.2811H58.4189C58.4189 60.2811 52.6564 72.7388 44.4706 60.2811Z" fill="#3F2B1A"/>
<path d="M46.0028 60.6642L48.0847 63.8536H54.8798L57.2448 60.6642H46.0028Z" fill="#FFECDE"/>
<path d="M52.0735 57.8912C53.8533 57.8912 55.2962 57.0039 55.2962 55.9093C55.2962 54.8147 53.8533 53.9274 52.0735 53.9274C50.2937 53.9274 48.8508 54.8147 48.8508 55.9093C48.8508 57.0039 50.2937 57.8912 52.0735 57.8912Z" fill="#EFA460"/>
<path d="M52.24 56.9502C53.6519 56.9502 54.7965 56.2493 54.7965 55.3847C54.7965 54.52 53.6519 53.8191 52.24 53.8191C50.8281 53.8191 49.6836 54.52 49.6836 55.3847C49.6836 56.2493 50.8281 56.9502 52.24 56.9502Z" fill="#FABE82"/>
<path d="M33.7866 52.3035C37.856 50.9598 42.2003 50.6732 46.4109 51.4708C46.4109 51.4708 44.8703 41.8944 39.0412 42.5855C33.2121 43.2767 33.2121 50.0801 33.7866 52.3035Z" fill="#FFECDE"/>
<path d="M69.0946 52.3035C65.3064 50.9628 61.2253 50.675 57.2864 51.4708C57.2864 51.4708 58.7104 41.8944 64.1648 42.5855C69.6192 43.2767 69.6192 50.0801 69.0946 52.3035Z" fill="#FFECDE"/>
<path d="M62.4827 50.6381C63.5727 50.6381 64.4563 49.5196 64.4563 48.1399C64.4563 46.7602 63.5727 45.6417 62.4827 45.6417C61.3927 45.6417 60.5091 46.7602 60.5091 48.1399C60.5091 49.5196 61.3927 50.6381 62.4827 50.6381Z" fill="#87ABC1"/>
<path d="M63.432 47.5153C63.4052 47.3874 63.3427 47.2696 63.2517 47.1758C63.1607 47.0819 63.045 47.0158 62.9179 46.9851C62.7909 46.9543 62.6577 46.9603 62.5339 47.0022C62.4101 47.0441 62.3007 47.1203 62.2184 47.2218C62.1361 47.3234 62.0843 47.4462 62.069 47.5761C62.0538 47.7059 62.0756 47.8374 62.1321 47.9553C62.1885 48.0732 62.2772 48.1727 62.3879 48.2422C62.4986 48.3117 62.6268 48.3484 62.7575 48.348C62.9556 48.323 63.1363 48.2224 63.262 48.0672C63.3877 47.912 63.4486 47.7143 63.432 47.5153Z" fill="#BFDFEF"/>
<path d="M40.6234 50.6381C41.7134 50.6381 42.597 49.5196 42.597 48.1399C42.597 46.7602 41.7134 45.6417 40.6234 45.6417C39.5334 45.6417 38.6498 46.7602 38.6498 48.1399C38.6498 49.5196 39.5334 50.6381 40.6234 50.6381Z" fill="#87ABC1"/>
<path d="M41.8142 47.5153C41.7875 47.3874 41.7249 47.2696 41.6339 47.1758C41.543 47.0819 41.4272 47.0158 41.3002 46.9851C41.1731 46.9543 41.04 46.9603 40.9161 47.0022C40.7923 47.0441 40.6829 47.1203 40.6006 47.2218C40.5183 47.3234 40.4666 47.4462 40.4513 47.5761C40.436 47.7059 40.4578 47.8374 40.5143 47.9553C40.5707 48.0732 40.6594 48.1727 40.7701 48.2422C40.8808 48.3117 41.009 48.3484 41.1397 48.348C41.3378 48.323 41.5186 48.2224 41.6443 48.0672C41.77 47.912 41.8308 47.7143 41.8142 47.5153Z" fill="#BFDFEF"/>
<path d="M96.7664 68.5502C96.275 67.7175 95.5089 67.1845 95.0593 67.4094C94.6096 67.6342 94.6512 68.5169 95.1425 69.3746C95.6338 70.2323 96.4083 70.7403 96.8579 70.5071C97.3076 70.274 97.266 69.4079 96.7664 68.5502Z" fill="#FABE82"/>
<path d="M96.0669 70.3323C95.9753 69.4246 95.5589 67.3594 95.0593 67.4094C94.2266 67.4926 93.7435 70.9651 95.7504 72.0477C96.2001 72.2809 96.1501 71.2483 96.0669 70.3323Z" fill="#FABE82"/>
<path d="M97.8156 66.2102C97.0412 66.1519 96.4166 66.4434 96.4166 66.8681C96.4166 67.2928 97.0495 67.7008 97.8239 67.7008C98.5984 67.7008 99.2229 67.4676 99.2229 67.043C99.2229 66.6183 98.5901 66.2685 97.8156 66.2102Z" fill="#FABE82"/>
<path d="M97.8822 67.1845C97.7406 66.6266 97.291 66.2602 96.8746 66.3518C96.6556 66.4538 96.4836 66.6355 96.3939 66.8598C96.3042 67.0842 96.3033 67.3343 96.3916 67.5593C96.5415 68.1172 96.9912 68.4836 97.3992 68.392C97.6211 68.2932 97.7957 68.1118 97.8859 67.8863C97.9761 67.6608 97.9747 67.4091 97.8822 67.1845Z" fill="#FABE82"/>
<path d="M99.1646 69.6827C99.0231 69.1248 98.5734 68.7584 98.157 68.85C97.9381 68.9519 97.7667 69.1341 97.6783 69.3588C97.59 69.5836 97.5914 69.8337 97.6824 70.0575C97.8239 70.6154 98.2736 70.9818 98.6816 70.8902C98.9035 70.7914 99.0781 70.61 99.1683 70.3845C99.2585 70.159 99.2572 69.9073 99.1646 69.6827Z" fill="#FABE82"/>
<path d="M98.7149 68.0839C98.5733 67.5259 98.1237 67.1595 97.7073 67.2511C97.4889 67.3515 97.3171 67.5316 97.2273 67.7546C97.1375 67.9776 97.1364 68.2265 97.2243 68.4503C97.3742 69.0082 97.8239 69.3746 98.232 69.283C98.4518 69.1843 98.6249 69.0042 98.7149 68.7807C98.8049 68.5571 98.8049 68.3074 98.7149 68.0839Z" fill="#FABE82"/>
<path d="M98.9481 67.426C98.207 67.426 97.6074 67.7258 97.6074 68.1505C97.6074 68.5752 98.2153 68.9333 98.9564 68.9832C99.6976 69.0332 100.297 68.6751 100.297 68.2504C100.297 67.8257 99.6892 67.4427 98.9481 67.426Z" fill="#FABE82"/>
<path d="M99.2479 68.7251C98.4151 68.7251 97.7656 69.0831 97.7656 69.5078C97.7656 69.9325 98.4318 70.2656 99.2562 70.2573C100.081 70.249 100.738 69.9075 100.738 69.4828C100.738 69.0582 100.072 68.7167 99.2479 68.7251Z" fill="#FABE82"/>
<path d="M8.15504 69.5495C8.74628 67.884 7.52216 64.3449 5.39869 64.3033C4.51929 64.3162 3.67954 64.6712 3.05764 65.2931C2.43574 65.915 2.08065 66.7548 2.06775 67.6342C2.09273 68.9915 6.75604 73.5133 8.15504 69.5495Z" fill="#4C3039"/>
<path d="M6.1898 65.8938C6.58118 64.9611 7.32232 64.3033 7.85527 64.4448C8.38822 64.5864 8.5048 65.4524 8.11341 66.3851C7.72203 67.3178 6.97257 67.9839 6.44794 67.8424C5.92332 67.7008 5.79841 66.8348 6.1898 65.8938Z" fill="#FABE82"/>
<path d="M7.28067 67.5176C7.21405 66.6016 7.28067 64.4948 7.85526 64.4448C8.78792 64.3615 9.92878 67.6842 7.92189 69.1414C7.48054 69.4579 7.34729 68.4336 7.28067 67.5176Z" fill="#FABE82"/>
<path d="M4.62423 63.8036C5.45696 63.5954 6.20642 63.7536 6.28969 64.1783C6.37297 64.603 5.7401 65.1027 4.89904 65.3109C4.05798 65.519 3.32517 65.3608 3.23357 64.9444C3.14197 64.5281 3.79149 64.0118 4.62423 63.8036Z" fill="#FABE82"/>
<path d="M4.72418 64.7363C4.72989 64.4801 4.83142 64.2354 5.0087 64.0504C5.18598 63.8654 5.42616 63.7536 5.68184 63.737C5.8035 63.7566 5.91983 63.8011 6.0236 63.8675C6.12737 63.934 6.21633 64.0211 6.28505 64.1234C6.35376 64.2256 6.40075 64.341 6.42304 64.4622C6.44533 64.5834 6.44247 64.7078 6.41465 64.8279C6.40912 65.0827 6.30878 65.3263 6.13323 65.5111C5.95768 65.6959 5.71953 65.8086 5.46532 65.8272C5.34293 65.8085 5.2257 65.7649 5.12098 65.6988C5.01625 65.6328 4.92631 65.5459 4.85673 65.4435C4.78716 65.341 4.73946 65.2254 4.71666 65.1037C4.69385 64.982 4.6964 64.8569 4.72418 64.7363Z" fill="#FABE82"/>
<path d="M3.75824 67.451C3.76744 67.1951 3.86989 66.9514 4.04627 66.7659C4.22266 66.5803 4.46083 66.4656 4.71591 66.4434C4.83776 66.4632 4.95428 66.5076 5.05837 66.5739C5.16247 66.6403 5.25192 66.7272 5.3213 66.8293C5.39067 66.9314 5.4385 67.0466 5.46183 67.1678C5.48516 67.289 5.48351 67.4137 5.457 67.5343C5.45336 67.7919 5.35276 68.0387 5.17527 68.2254C4.99779 68.4121 4.75648 68.5252 4.49939 68.5419C4.37807 68.521 4.26219 68.4759 4.1587 68.4092C4.05521 68.3426 3.96623 68.2557 3.89705 68.1539C3.82787 68.0521 3.7799 67.9374 3.75606 67.8166C3.73221 67.6958 3.73296 67.5715 3.75824 67.451Z" fill="#FABE82"/>
<path d="M3.97476 65.8272C3.98031 65.5701 4.08152 65.3244 4.25863 65.1381C4.43573 64.9517 4.67597 64.8381 4.93238 64.8195C5.05423 64.8393 5.1708 64.8837 5.2749 64.9501C5.37899 65.0164 5.46845 65.1033 5.53782 65.2054C5.60719 65.3075 5.65502 65.4227 5.67835 65.5439C5.70169 65.6652 5.70003 65.7899 5.67352 65.9104C5.66798 66.1675 5.56677 66.4132 5.38966 66.5995C5.21255 66.7859 4.97232 66.8994 4.71591 66.918C4.59459 66.8972 4.47871 66.852 4.37522 66.7854C4.27173 66.7187 4.1827 66.6319 4.11352 66.5301C4.04434 66.4282 3.99643 66.3135 3.97258 66.1927C3.94873 66.072 3.94948 65.9476 3.97476 65.8272Z" fill="#FABE82"/>
<path d="M3.59997 65.2276C4.43271 65.0527 5.12386 65.2276 5.19881 65.6773C5.27376 66.127 4.67421 66.5683 3.86646 66.7349C3.0587 66.9014 2.34257 66.7349 2.26762 66.2768C2.19267 65.8188 2.79222 65.3941 3.59997 65.2276Z" fill="#FABE82"/>
<path d="M3.50843 66.56C4.40779 66.4018 5.1739 66.6183 5.27383 67.0346C5.37375 67.451 4.67427 67.9173 3.77491 68.0756C2.87556 68.2338 2.10945 68.0173 2.00952 67.6009C1.90959 67.1845 2.60908 66.7182 3.50843 66.56Z" fill="#FABE82"/>
<path d="M52.2234 18.3197L49.8084 22.9663L52.2234 27.6046L54.6466 22.9663L52.2234 18.3197Z" fill="#71CCC7"/>
</g>
<defs>
<filter id="filter0_d_4_1431" x="0" y="0" width="106.738" height="153.253" filterUnits="userSpaceOnUse" color-interpolation-filters="sRGB">
<feFlood flood-opacity="0" result="BackgroundImageFix"/>
<feColorMatrix in="SourceAlpha" type="matrix" values="0 0 0 0 0 0 0 0 0 0 0 0 0 0 0 0 0 0 127 0" result="hardAlpha"/>
<feOffset dx="2" dy="4"/>
<feGaussianBlur stdDeviation="2"/>
<feComposite in2="hardAlpha" operator="out"/>
<feColorMatrix type="matrix" values="0 0 0 0 0 0 0 0 0 0 0 0 0 0 0 0 0 0 0.25 0"/>
<feBlend mode="normal" in2="BackgroundImageFix" result="effect1_dropShadow_4_1431"/>
<feBlend mode="normal" in="SourceGraphic" in2="effect1_dropShadow_4_1431" result="shape"/>
</filter>
<linearGradient id="paint0_linear_4_1431" x1="40701.3" y1="7769.16" x2="40718.1" y2="9129.61" gradientUnits="userSpaceOnUse">
<stop stop-color="#C04B00"/>
<stop offset="1" stop-color="#B73400"/>
</linearGradient>
</defs>
</svg>
