<svg width="87" height="156" viewBox="0 0 87 156" fill="none" xmlns="http://www.w3.org/2000/svg">
<g filter="url(#filter0_d_4_1428)">
<path d="M20.6852 83.1852C5.37959 64.2405 -11.0669 13.7851 26.4061 13.1606C36.0076 -14.6028 111.495 -1.36232 64.7952 81.0784L20.6852 83.1852Z" fill="#F78B2B"/>
<path d="M70.8075 25.4934C68.1844 41.6818 55.4686 53.9646 40.1712 53.9646C27.7801 53.9646 17.0795 45.9037 12.0664 34.2371C11.1837 50.5587 18.4119 72.1848 25.3319 83.1852L59.6989 81.1034C70.4245 56.7876 72.8727 38.5007 70.8075 25.4934Z" fill="#E56C1A"/>
<path d="M38.8972 76.0321L33.8342 71.0357L49.9309 69.645L46.3918 75.2993L38.8972 76.0321Z" fill="#77C6E5"/>
<path d="M39.3385 73.8253V64.4237L43.9436 64.8651L44.8179 74.3L39.3385 73.8253Z" fill="#FFCB9C"/>
<path d="M73.1059 100.623C69.9998 95.8761 56.0682 72.8593 47.3411 72.2514L47.6825 77.506C47.6825 77.506 58.5664 82.086 71.7486 102.088L73.1059 100.623Z" fill="#529FCE"/>
<path d="M71.8568 98.6657L70.8076 99.7983C59.7489 83.0187 50.3223 76.7398 47.5743 75.2659L47.6825 77.506C47.6825 77.506 58.5664 82.086 71.7486 102.088L73.1059 100.623C72.7978 100.14 72.3648 99.4735 71.8568 98.6657Z" fill="#418BAF"/>
<path d="M68.884 86.4412L61.6974 92.1621C61.6974 92.1621 66.8188 109.083 75.5625 105.677C84.3062 102.271 79.3015 93.6693 73.897 95.0517L68.884 86.4412Z" fill="#8AD8FF"/>
<path d="M16.2884 104.77C18.9199 99.7233 30.6698 74.9995 39.4551 73.4589L39.555 79.0882C39.555 79.0882 29.0209 84.7924 17.829 106.085L16.2884 104.77Z" fill="#529FCE"/>
<path d="M18.4535 104.212L17.1462 103.096C16.8047 103.77 16.5133 104.345 16.3134 104.761L17.854 106.077C29.0459 84.784 39.58 79.0798 39.58 79.0798L39.4052 76.8564C36.9319 78.4719 28.005 86.0748 18.4535 104.212Z" fill="#418BAF"/>
<path d="M35.383 106.335C34.7252 100.34 32.0937 75.3825 38.0145 73.8586C43.9352 72.3347 49.2148 71.3604 50.3057 73.8586C51.3965 76.3568 56.6761 100.365 54.919 105.394C53.1619 110.424 35.383 106.335 35.383 106.335Z" fill="#529FCE"/>
<path d="M51.18 80.2873C52.5623 87.9401 54.2611 99.715 54.2278 106.369C54.5383 106.11 54.7789 105.778 54.9273 105.403C56.3346 101.63 53.6532 86.8326 51.8795 79.2381C51.3715 77.048 50.6804 77.4976 51.18 80.2873Z" fill="#418BAF"/>
<path d="M44.643 140.153C41.1872 132.575 31.0695 111.973 35.1915 94.6769C35.1915 94.6769 53.0286 95.4514 53.9363 96.0343C54.844 96.6172 58.4747 123.24 51.4381 141.701L50.5304 141.51C50.5304 141.51 56.3596 110.807 45.9587 110.607C35.7827 110.416 46.2335 139.953 46.2335 139.953L44.643 140.153Z" fill="#529FCE"/>
<path d="M55.0023 103.787H34.3921V105.103H55.0023V103.787Z" fill="#418BAF"/>
<path d="M53.9363 96.0676C53.7776 95.9963 53.6093 95.9486 53.4367 95.9261C54.6026 101.697 56.4429 122.632 51.0218 138.495C50.747 140.369 50.5222 141.543 50.5222 141.543L51.4298 141.735C58.4748 123.24 54.844 96.6172 53.9363 96.0676Z" fill="#418BAF"/>
<path d="M45.9504 110.607C46.6588 110.62 47.3542 110.8 47.9805 111.131C48.6069 111.462 49.1466 111.936 49.5562 112.514C48.5985 110.366 47.1412 108.983 44.9761 108.942C34.8001 108.75 45.2509 138.287 45.2509 138.287L43.8686 138.462L44.643 140.128L46.2252 139.928C46.2252 139.928 35.7744 110.416 45.9504 110.607Z" fill="#418BAF"/>
<path d="M44.6763 139.545C43.2107 141.835 43.5022 146.282 43.5022 146.282C43.5022 146.282 46.8331 140.819 46.142 139.803C45.4508 138.787 44.6763 139.545 44.6763 139.545Z" fill="#8AD8FF"/>
<path d="M52.4125 140.561C54.2278 142.851 53.8614 147.297 53.8614 147.297C53.8614 147.297 49.6977 141.835 50.5888 140.819C50.6891 140.679 50.8168 140.561 50.964 140.472C51.1112 140.382 51.275 140.324 51.4454 140.3C51.6159 140.276 51.7894 140.286 51.9556 140.331C52.1218 140.376 52.2772 140.454 52.4125 140.561Z" fill="#8AD8FF"/>
<path d="M43.802 131.542L41.1705 132.175L44.3849 141.194L46.4334 140.053L43.802 131.542Z" fill="#8AD8FF"/>
<path d="M51.8462 132.683L53.8947 133.316L53.0204 141.71L50.5804 141.194L51.8462 132.683Z" fill="#8AD8FF"/>
<path d="M36.782 73.9835L43.2191 78.9799L48.4736 72.2431C48.4736 72.2431 43.4023 70.7525 36.782 73.9835Z" fill="#77C6E5"/>
<path d="M37.2151 86.9992L43.4273 92.4786L50.3306 84.3178L43.0109 89.2559L37.2151 86.9992Z" fill="#9FE8FF"/>
<path d="M39.9381 92.4785L44.1018 96.9919L47.0163 91.6458L43.8186 94.8102L39.9381 92.4785Z" fill="#9FE8FF"/>
<g style="mix-blend-mode:multiply" opacity="0.5">
<path d="M56.8343 78.4386C53.8697 75.3658 50.9052 73.0425 48.3154 72.418L48.4736 72.2098H48.3487L49.9309 69.7116L44.4349 70.1863L44.2767 68.5208H42.7527C41.5869 68.5208 40.4461 68.5208 39.3385 68.5874V70.6859L33.8342 71.1605L36.807 74.0918L36.9902 74.2333L37.1651 74.3999L36.9652 74.5664C35.0429 75.8146 33.3264 77.3542 31.8772 79.1298C35.4872 79.6493 39.1306 79.9025 42.7777 79.8876C47.5008 79.8936 52.2117 79.408 56.8343 78.4386Z" fill="#66493D"/>
</g>
<path d="M11.1088 37.7013C11.1588 47.4609 19.153 69.4201 40.0547 69.8865C60.6982 70.3528 69.8083 47.2278 69.5834 37.7013C69.4502 32.122 66.5689 13.6436 40.979 14.3847C19.9525 15.0343 11.0589 27.9416 11.1088 37.7013Z" fill="#FFCB9C"/>
<path style="mix-blend-mode:multiply" opacity="0.3" d="M11.1088 37.7013C11.1588 47.4609 19.153 69.4201 40.0547 69.8865C60.6982 70.3528 69.8083 47.2278 69.5834 37.7013C69.4502 32.122 66.5689 13.6436 40.979 14.3847C19.9525 15.0343 11.0589 27.9416 11.1088 37.7013Z" fill="url(#paint0_linear_4_1428)"/>
<path d="M28.4214 16.0085C35.3581 18.5067 35.2165 23.5032 42.7111 22.6704C50.2057 21.8377 52.8455 21.1382 57.0092 22.1125C57.0092 22.1125 52.5707 19.7559 44.9345 21.2798C37.2983 22.8037 32.5851 13.3688 30.5032 13.9267C28.4214 14.4846 28.4214 16.0085 28.4214 16.0085Z" fill="#F78B2B"/>
<path d="M30.9945 13.2772C38.1644 14.9926 38.5808 19.9391 45.9338 18.3236C53.2868 16.7081 55.835 15.6838 60.0903 16.1918C60.0903 16.1918 55.4186 14.3348 47.999 16.6997C40.5793 19.0647 34.8501 10.1961 32.8432 10.9789C30.8363 11.7616 30.9945 13.2772 30.9945 13.2772Z" fill="#F78B2B"/>
<path opacity="0.5" d="M55.303 56.8298C55.3219 56.7439 55.3138 56.6542 55.2797 56.5732C55.2456 56.4921 55.1871 56.4236 55.1125 56.3771C55.0378 56.3306 54.9505 56.3085 54.8627 56.3137C54.7749 56.3188 54.6909 56.3511 54.6222 56.4061C54.5535 56.461 54.5036 56.5359 54.4792 56.6204C54.4549 56.705 54.4574 56.795 54.4863 56.878C54.5153 56.9611 54.5693 57.0331 54.6409 57.0842C54.7125 57.1353 54.7982 57.1629 54.8861 57.1632C54.9853 57.1727 55.0843 57.1432 55.1621 57.0809C55.2399 57.0187 55.2904 56.9286 55.303 56.8298Z" fill="#DD7F33"/>
<path opacity="0.5" d="M57.3098 53.9649C57.2905 53.8687 57.2384 53.782 57.1624 53.7198C57.0864 53.6576 56.9912 53.6236 56.893 53.6236C56.7948 53.6236 56.6996 53.6576 56.6236 53.7198C56.5476 53.782 56.4956 53.8687 56.4762 53.9649C56.4956 54.0612 56.5476 54.1479 56.6236 54.2101C56.6996 54.2723 56.7948 54.3063 56.893 54.3063C56.9912 54.3063 57.0864 54.2723 57.1624 54.2101C57.2384 54.1479 57.2905 54.0612 57.3098 53.9649Z" fill="#DD7F33"/>
<path opacity="0.5" d="M55.5445 52.7658C55.5186 52.6752 55.4639 52.5955 55.3887 52.5388C55.3135 52.482 55.2218 52.4514 55.1276 52.4514C55.0334 52.4514 54.9418 52.482 54.8666 52.5388C54.7914 52.5955 54.7367 52.6752 54.7108 52.7658C54.7367 52.8564 54.7914 52.9361 54.8666 52.9928C54.9418 53.0495 55.0334 53.0802 55.1276 53.0802C55.2218 53.0802 55.3135 53.0495 55.3887 52.9928C55.4639 52.9361 55.5186 52.8564 55.5445 52.7658Z" fill="#DD7F33"/>
<path opacity="0.5" d="M37.4991 51.2338C37.5199 51.1463 37.5129 51.0545 37.4792 50.9712C37.4455 50.8879 37.3867 50.8171 37.311 50.7686C37.2353 50.7202 37.1464 50.6964 37.0566 50.7007C36.9668 50.705 36.8805 50.7372 36.8098 50.7927C36.7391 50.8481 36.6873 50.9242 36.6617 51.0104C36.6362 51.0966 36.638 51.1886 36.667 51.2737C36.6961 51.3588 36.7508 51.4327 36.8237 51.4853C36.8966 51.5379 36.9841 51.5665 37.074 51.5672C37.1741 51.5768 37.2741 51.5476 37.3532 51.4855C37.4324 51.4234 37.4846 51.3333 37.4991 51.2338Z" fill="#DD7F33"/>
<path opacity="0.5" d="M32.8608 57.904C32.8816 57.8162 32.8745 57.7241 32.8405 57.6405C32.8064 57.5569 32.7471 57.486 32.6709 57.4378C32.5946 57.3895 32.5052 57.3662 32.4151 57.3712C32.325 57.3761 32.2387 57.4091 32.1682 57.4655C32.0977 57.5219 32.0466 57.5989 32.022 57.6857C31.9973 57.7725 32.0004 57.8649 32.0308 57.9499C32.0611 58.0348 32.1173 58.1082 32.1913 58.1598C32.2654 58.2114 32.3537 58.2385 32.444 58.2375C32.5432 58.2469 32.6421 58.2174 32.7199 58.1552C32.7977 58.0929 32.8483 58.0029 32.8608 57.904Z" fill="#DD7F33"/>
<path opacity="0.5" d="M29.4632 56.6547C29.4507 56.5558 29.4002 56.4657 29.3224 56.4035C29.2446 56.3413 29.1456 56.3117 29.0464 56.3212C28.9964 56.31 28.9445 56.3101 28.8945 56.3216C28.8446 56.3331 28.7979 56.3558 28.7579 56.3878C28.7178 56.4198 28.6855 56.4604 28.6633 56.5066C28.6411 56.5528 28.6296 56.6034 28.6296 56.6547C28.6296 56.7059 28.6411 56.7565 28.6633 56.8027C28.6855 56.8489 28.7178 56.8895 28.7579 56.9216C28.7979 56.9536 28.8446 56.9762 28.8945 56.9877C28.9445 56.9993 28.9964 56.9994 29.0464 56.9881C29.1456 56.9976 29.2446 56.9681 29.3224 56.9058C29.4002 56.8436 29.4507 56.7535 29.4632 56.6547Z" fill="#DD7F33"/>
<path opacity="0.5" d="M32.1696 55.8222C32.1886 55.7363 32.1804 55.6466 32.1463 55.5655C32.1122 55.4845 32.0538 55.416 31.9791 55.3695C31.9044 55.323 31.8172 55.3009 31.7294 55.306C31.6416 55.3112 31.5575 55.3435 31.4889 55.3985C31.4202 55.4534 31.3702 55.5283 31.3459 55.6128C31.3215 55.6974 31.324 55.7873 31.353 55.8704C31.3819 55.9535 31.4359 56.0255 31.5075 56.0766C31.5791 56.1277 31.6648 56.1553 31.7528 56.1556C31.852 56.1651 31.9509 56.1356 32.0287 56.0733C32.1065 56.0111 32.1571 55.921 32.1696 55.8222Z" fill="#DD7F33"/>
<path opacity="0.5" d="M31.187 53.2573C31.206 53.1714 31.1978 53.0818 31.1637 53.0007C31.1296 52.9196 31.0712 52.8511 30.9965 52.8047C30.9218 52.7582 30.8346 52.736 30.7468 52.7412C30.659 52.7464 30.5749 52.7787 30.5062 52.8336C30.4375 52.8886 30.3876 52.9635 30.3633 53.048C30.3389 53.1325 30.3414 53.2225 30.3704 53.3055C30.3993 53.3886 30.4533 53.4606 30.5249 53.5117C30.5965 53.5628 30.6822 53.5904 30.7702 53.5908C30.8694 53.6002 30.9683 53.5707 31.0461 53.5085C31.1239 53.4462 31.1745 53.3562 31.187 53.2573Z" fill="#DD7F33"/>
<path opacity="0.5" d="M33.7934 53.8652C33.8143 53.7774 33.8072 53.6853 33.7731 53.6017C33.7391 53.5181 33.6798 53.4472 33.6035 53.3989C33.5273 53.3507 33.4378 53.3274 33.3477 53.3324C33.2576 53.3373 33.1713 53.3703 33.1008 53.4267C33.0304 53.4831 32.9792 53.5601 32.9546 53.6469C32.93 53.7337 32.9331 53.8261 32.9634 53.9111C32.9938 53.996 33.0499 54.0695 33.124 54.121C33.1981 54.1726 33.2864 54.1997 33.3766 54.1987C33.4758 54.2081 33.5748 54.1786 33.6526 54.1164C33.7304 54.0541 33.7809 53.9641 33.7934 53.8652Z" fill="#DD7F33"/>
<path opacity="0.5" d="M26.2738 54.4312C26.248 54.3407 26.1933 54.261 26.1181 54.2042C26.0429 54.1475 25.9512 54.1168 25.857 54.1168C25.7628 54.1168 25.6712 54.1475 25.596 54.2042C25.5208 54.261 25.4661 54.3407 25.4402 54.4312C25.4661 54.5218 25.5208 54.6015 25.596 54.6583C25.6712 54.715 25.7628 54.7457 25.857 54.7457C25.9512 54.7457 26.0429 54.715 26.1181 54.6583C26.1933 54.6015 26.248 54.5218 26.2738 54.4312Z" fill="#DD7F33"/>
<path opacity="0.5" d="M52.5966 53.5987C52.6174 53.5113 52.6104 53.4195 52.5767 53.3362C52.543 53.2528 52.4842 53.182 52.4085 53.1336C52.3328 53.0851 52.2438 53.0614 52.154 53.0657C52.0642 53.07 51.978 53.1021 51.9073 53.1576C51.8365 53.2131 51.7848 53.2892 51.7592 53.3754C51.7336 53.4616 51.7355 53.5536 51.7645 53.6386C51.7935 53.7237 51.8483 53.7977 51.9212 53.8503C51.9941 53.9029 52.0815 53.9315 52.1714 53.9322C52.2716 53.9418 52.3716 53.9126 52.4507 53.8505C52.5299 53.7884 52.5821 53.6983 52.5966 53.5987Z" fill="#DD7F33"/>
<path opacity="0.5" d="M51.6556 55.6304C51.6362 55.5341 51.5841 55.4475 51.5082 55.3853C51.4322 55.323 51.337 55.289 51.2388 55.289C51.1405 55.289 51.0453 55.323 50.9694 55.3853C50.8934 55.4475 50.8413 55.5341 50.8219 55.6304C50.8413 55.7267 50.8934 55.8133 50.9694 55.8756C51.0453 55.9378 51.1405 55.9718 51.2388 55.9718C51.337 55.9718 51.4322 55.9378 51.5082 55.8756C51.5841 55.8133 51.6362 55.7267 51.6556 55.6304Z" fill="#DD7F33"/>
<path opacity="0.5" d="M49.4739 51.8667C49.4947 51.7789 49.4876 51.6867 49.4535 51.6032C49.4195 51.5196 49.3602 51.4487 49.2839 51.4004C49.2077 51.3521 49.1183 51.3289 49.0282 51.3338C48.938 51.3388 48.8517 51.3718 48.7813 51.4282C48.7108 51.4846 48.6597 51.5615 48.635 51.6483C48.6104 51.7352 48.6135 51.8275 48.6438 51.9125C48.6742 51.9975 48.7303 52.0709 48.8044 52.1225C48.8785 52.174 48.9668 52.2012 49.057 52.2002C49.1562 52.2096 49.2552 52.1801 49.333 52.1179C49.4108 52.0556 49.4613 51.9655 49.4739 51.8667Z" fill="#DD7F33"/>
<path d="M70.208 27.4836C64.1041 21.5795 53.1952 20.5136 48.8151 25.4684C44.1018 30.573 37.2983 30.8562 32.1604 25.4684C32.0355 25.3351 31.9106 25.2185 31.7857 25.102C26.8559 20.6885 16.2135 23.2866 11.0256 30.0318C5.83763 36.7769 14.5314 52.5572 17.5126 53.1235C22.967 54.1561 36.3907 52.6488 38.5141 48.2353C41.3288 42.4062 43.827 45.1126 45.9171 48.5018C48.4986 52.6655 61.6808 53.0735 66.9937 51.2665C69.8749 50.2672 76.3536 33.421 70.208 27.4836Z" fill="#4290B7"/>
<path d="M15.8471 27.3337C15.8471 27.3337 7.10338 21.8627 5.6794 23.1118C4.25543 24.3609 8.71888 30.3815 8.71888 30.3815C8.71888 30.3815 4.82169 27.7668 3.26448 29.5488C1.70726 31.3309 7.36985 36.0358 7.36985 36.0358C7.36985 36.0358 3.20618 34.6035 2.08198 36.6187C0.957792 38.6339 11.7667 45.5123 11.7667 45.5123L15.8471 27.3337Z" fill="#4290B7"/>
<path d="M62.8966 24.4025C62.8966 24.4025 70.9824 16.0751 72.8478 16.8579C74.7131 17.6407 71.3905 25.1436 71.3905 25.1436C71.3905 25.1436 74.9546 21.2464 77.078 22.5288C79.2015 23.8113 74.2717 30.3732 74.2717 30.3732C74.2717 30.3732 78.4354 27.5669 80.1508 29.2323C81.8663 30.8978 71.9068 41.307 71.9068 41.307L62.8966 24.4025Z" fill="#4290B7"/>
<path d="M58.2582 30.8395C50.3639 30.8395 43.9685 36.5604 43.9685 43.6053C43.9722 44.5028 44.0783 45.3968 44.2849 46.2701C44.8808 46.9669 45.4158 47.7135 45.8838 48.5018C48.4653 52.6655 61.6475 53.0736 66.9603 51.2665C68.4759 50.7502 70.9658 45.9287 72.1233 40.5825C70.6077 34.9949 64.9784 30.8395 58.2582 30.8395Z" fill="#5BB4D8"/>
<path d="M23.4666 32.1552C31.4942 31.1726 38.9138 36.0275 40.0464 42.9808C40.1901 43.8642 40.2264 44.7617 40.1546 45.6539C39.6614 46.4136 39.2378 47.2163 38.8889 48.0522C36.9319 52.499 23.5832 54.5142 17.8873 53.39C16.2635 53.0652 12.9575 48.6101 10.9173 43.4804C11.5668 37.7762 16.6215 32.988 23.4666 32.1552Z" fill="#5BB4D8"/>
<path d="M15.2891 54.3393C14.1899 52.5739 12.3663 51.7328 11.2254 52.449C10.0846 53.1651 10.0346 55.172 11.1338 56.9291C12.233 58.6862 14.0484 59.5355 15.1975 58.8194C16.3467 58.1032 16.3883 56.0964 15.2891 54.3393Z" fill="#FFCB9C"/>
<path d="M15.0893 54.7224C14.3149 53.4816 13.0324 52.882 12.2247 53.39C11.4169 53.8979 11.3919 55.3053 12.1664 56.546C12.9408 57.7868 14.2232 58.3781 15.031 57.8784C15.8388 57.3788 15.8471 55.9631 15.0893 54.7224Z" fill="#EFA460"/>
<path d="M15.2225 54.6391C14.8228 53.9979 14.1483 53.6815 13.7319 53.9479C13.3156 54.2144 13.2989 54.9472 13.7319 55.6134C14.165 56.2796 14.7979 56.5627 15.2225 56.3046C15.6472 56.0464 15.6223 55.2637 15.2225 54.6391Z" fill="#FFCB9C"/>
<path d="M70.6493 55.8549C71.8568 54.4059 71.9734 52.5239 70.9241 51.6912C69.8749 50.8585 68.0262 51.2748 66.8271 52.7238C65.6279 54.1728 65.503 56.0547 66.5606 56.9374C67.6182 57.8201 69.4502 57.3038 70.6493 55.8549Z" fill="#FFCB9C"/>
<path d="M69.8499 55.3636C70.6827 54.3643 70.7576 53.0652 70.0331 52.4657C69.3086 51.8661 68.0429 52.1825 67.2101 53.1735C66.3774 54.1644 66.3025 55.4718 67.0269 56.0797C67.7514 56.6876 69.0172 56.3628 69.8499 55.3636Z" fill="#EFA460"/>
<path d="M67.918 54.4309C67.9841 54.2655 68.0033 54.085 67.9733 53.9095C67.9433 53.7339 67.8653 53.57 67.748 53.436C67.6307 53.3019 67.4786 53.2029 67.3085 53.1499C67.1385 53.0969 66.9571 53.0919 66.7844 53.1356C66.6117 53.1792 66.4544 53.2698 66.33 53.3972C66.2055 53.5247 66.1187 53.6841 66.0792 53.8577C66.0397 54.0314 66.0489 54.2127 66.106 54.3814C66.163 54.5502 66.2656 54.6998 66.4024 54.8139C66.6553 54.9592 66.9549 55.0004 67.2377 54.929C67.5205 54.8575 67.7644 54.6789 67.918 54.4309Z" fill="#FFCB9C"/>
<path d="M65.12 25.9181C65.12 25.9181 65.8361 15.6338 64.0624 14.9593C62.2887 14.2848 59.066 21.0633 59.066 21.0633C59.066 21.0633 59.549 16.3916 57.2507 15.8504C54.9523 15.3091 53.4534 22.5122 53.4534 22.5122C53.4534 22.5122 52.7622 18.1404 50.4555 18.1154C48.1489 18.0904 47.1246 30.8396 47.1246 30.8396L65.12 25.9181Z" fill="#4290B7"/>
<path d="M13.4488 28.6161C13.4488 28.6161 9.89303 17.5657 11.4669 16.2917C13.0408 15.0176 18.1288 21.4629 18.1288 21.4629C18.1288 21.4629 16.3551 16.4665 18.4869 15.2174C20.6187 13.9683 24.0912 21.3797 24.0912 21.3797C24.0912 21.3797 23.5749 16.3833 25.8482 15.6588C28.1216 14.9343 32.6017 28.6161 32.6017 28.6161H13.4488Z" fill="#4290B7"/>
<path d="M47.5493 48.3686C49.0149 50.4837 59.2992 51.7911 62.3053 49.6676C64.3539 45.6372 63.8126 36.6353 56.9258 35.4612C52.937 34.7783 45.5257 40.1412 47.5493 48.3686Z" fill="#317793"/>
<path d="M47.8074 48.4602C49.1981 50.4754 58.9911 51.7162 61.8473 49.6927C63.7959 45.8621 63.2796 37.2849 56.7344 36.1691C52.9288 35.5195 45.8755 40.6242 47.8074 48.4602Z" fill="#FFECDE"/>
<path d="M22.6339 51.1C24.6991 52.6239 34.8501 50.5337 37.0152 47.5442C37.6481 43.0807 34.2172 34.7367 27.3222 35.8859C23.3417 36.5105 18.0538 43.9801 22.6339 51.1Z" fill="#317793"/>
<path d="M22.7505 51.1582C24.7324 52.5822 34.517 50.5753 36.6072 47.7773C37.2317 43.6137 33.9591 35.7943 27.3222 36.8602C23.4666 37.4847 18.3453 44.4964 22.7505 51.1582Z" fill="#FFECDE"/>
<path d="M36.4573 55.0888L47.0746 54.9222C47.0746 54.9222 41.6619 69.2702 36.4573 55.0888Z" fill="#4C311B"/>
<path d="M37.34 55.63L38.7973 58.4363L44.4182 58.3364L46.0837 55.4218L37.34 55.63Z" fill="#FFEFE9"/>
<path d="M41.92 53.0319C43.5849 53.0319 44.9345 52.2378 44.9345 51.2582C44.9345 50.2786 43.5849 49.4844 41.92 49.4844C40.2552 49.4844 38.9055 50.2786 38.9055 51.2582C38.9055 52.2378 40.2552 53.0319 41.92 53.0319Z" fill="#EFA460"/>
<path d="M44.5848 50.7669C44.5848 50.0424 43.3273 49.4511 41.7785 49.4511C40.2296 49.4511 38.9638 50.0424 38.9638 50.7669C38.9638 51.4914 40.2296 52.0909 41.7785 52.0909C43.3273 52.0909 44.5848 51.4997 44.5848 50.7669Z" fill="#FFCB9C"/>
<path opacity="0.5" d="M42.545 48.5527C42.7568 48.5527 42.9285 48.3661 42.9285 48.1359C42.9285 47.9057 42.7568 47.719 42.545 47.719C42.3332 47.719 42.1615 47.9057 42.1615 48.1359C42.1615 48.3661 42.3332 48.5527 42.545 48.5527Z" fill="#DD7F33"/>
<path opacity="0.5" d="M40.638 48.203C40.8498 48.203 41.0215 48.0164 41.0215 47.7862C41.0215 47.556 40.8498 47.3694 40.638 47.3694C40.4262 47.3694 40.2545 47.556 40.2545 47.7862C40.2545 48.0164 40.4262 48.203 40.638 48.203Z" fill="#DD7F33"/>
<path opacity="0.5" d="M42.3701 45.9796C42.5819 45.9796 42.7536 45.793 42.7536 45.5627C42.7536 45.3325 42.5819 45.1459 42.3701 45.1459C42.1583 45.1459 41.9866 45.3325 41.9866 45.5627C41.9866 45.793 42.1583 45.9796 42.3701 45.9796Z" fill="#DD7F33"/>
<path d="M53.47 50.0091C55.4246 50.0091 57.0092 48.3313 57.0092 46.2618C57.0092 44.1922 55.4246 42.5145 53.47 42.5145C51.5154 42.5145 49.9309 44.1922 49.9309 46.2618C49.9309 48.3313 51.5154 50.0091 53.47 50.0091Z" fill="#535E27"/>
<path d="M30.1535 50.0091C32.1081 50.0091 33.6926 48.3313 33.6926 46.2618C33.6926 44.1922 32.1081 42.5145 30.1535 42.5145C28.1989 42.5145 26.6143 44.1922 26.6143 46.2618C26.6143 48.3313 28.1989 50.0091 30.1535 50.0091Z" fill="#535E27"/>
<path d="M32.3519 45.529C32.3373 45.3038 32.2572 45.0879 32.1214 44.9076C31.9857 44.7274 31.8002 44.5907 31.5879 44.5145C31.3755 44.4383 31.1455 44.4258 30.9261 44.4785C30.7067 44.5313 30.5075 44.6471 30.3531 44.8115C30.1986 44.976 30.0956 45.182 30.0567 45.4043C30.0177 45.6265 30.0446 45.8553 30.134 46.0625C30.2234 46.2697 30.3714 46.4462 30.5598 46.5704C30.7482 46.6945 30.9687 46.761 31.1944 46.7614C31.3515 46.7571 31.5062 46.7218 31.6496 46.6574C31.793 46.593 31.9222 46.5009 32.0298 46.3863C32.1374 46.2717 32.2213 46.137 32.2766 45.9899C32.3318 45.8427 32.3574 45.6861 32.3519 45.529Z" fill="#869B2F"/>
<path d="M55.4519 45.3208C55.4405 45.1158 55.3692 44.9186 55.2468 44.7538C55.1245 44.5889 54.9564 44.4635 54.7635 44.3933C54.5706 44.323 54.3613 44.3108 54.1615 44.3583C53.9618 44.4058 53.7804 44.5109 53.6397 44.6605C53.4991 44.8101 53.4055 44.9977 53.3704 45.2C53.3354 45.4023 53.3605 45.6105 53.4426 45.7987C53.5247 45.9869 53.6602 46.1468 53.8323 46.2588C54.0045 46.3707 54.2057 46.4296 54.411 46.4283C54.5521 46.424 54.691 46.392 54.8196 46.334C54.9483 46.2759 55.0643 46.1931 55.161 46.0903C55.2577 45.9874 55.3331 45.8665 55.383 45.7345C55.433 45.6024 55.4564 45.4619 55.4519 45.3208Z" fill="#869B2F"/>
<path d="M2.83144 37.1017C2.70131 37.3617 2.6544 37.6554 2.69705 37.943C2.7397 38.2306 2.86983 38.4981 3.06981 38.7091C3.26979 38.9201 3.5299 39.0644 3.81477 39.1225C4.09964 39.1805 4.39547 39.1494 4.66206 39.0335C4.92866 38.9175 5.15308 38.7223 5.30484 38.4743C5.45659 38.2263 5.52834 37.9376 5.5103 37.6475C5.49226 37.3573 5.3853 37.0797 5.204 36.8525C5.02269 36.6252 4.77581 36.4593 4.4969 36.3772C4.17968 36.2565 3.82778 36.2646 3.51652 36.4C3.20526 36.5354 2.95936 36.7873 2.83144 37.1017Z" fill="#5BB4D8"/>
<path d="M3.73081 30.2816C3.60069 30.5415 3.55375 30.8353 3.5964 31.1229C3.63905 31.4104 3.76921 31.6779 3.96918 31.8889C4.16916 32.1 4.42924 32.2443 4.71412 32.3023C4.99899 32.3604 5.29485 32.3293 5.56144 32.2133C5.82803 32.0974 6.05245 31.9021 6.20421 31.6541C6.35597 31.4062 6.42769 31.1175 6.40965 30.8273C6.39161 30.5372 6.28468 30.2596 6.10337 30.0323C5.92206 29.8051 5.67519 29.6391 5.39628 29.5571C5.0789 29.4385 4.72787 29.4478 4.41719 29.5829C4.10651 29.7181 3.86044 29.9685 3.73081 30.2816Z" fill="#5BB4D8"/>
<path d="M6.68701 24.1943C6.4671 24.3824 6.31011 24.6334 6.2372 24.9134C6.16429 25.1934 6.17895 25.4891 6.27921 25.7605C6.37947 26.032 6.5605 26.2662 6.79794 26.4316C7.03538 26.597 7.31782 26.6857 7.60719 26.6857C7.89657 26.6857 8.17898 26.597 8.41642 26.4316C8.65386 26.2662 8.83489 26.032 8.93515 25.7605C9.03541 25.4891 9.05007 25.1934 8.97716 24.9134C8.90425 24.6334 8.74726 24.3824 8.52735 24.1943C8.28148 23.9537 7.95118 23.819 7.60719 23.819C7.2632 23.819 6.93288 23.9537 6.68701 24.1943Z" fill="#5BB4D8"/>
<path d="M12.4162 17.7156C12.186 17.8757 12.0275 18.1195 11.9746 18.3949C11.9216 18.6704 11.9786 18.9555 12.1331 19.1896C12.2508 19.3353 12.4077 19.4444 12.5854 19.5039C12.763 19.5635 12.954 19.571 13.1357 19.5256C13.3175 19.4802 13.4825 19.3838 13.6113 19.2477C13.7401 19.1117 13.8272 18.9416 13.8626 18.7576C13.8979 18.5736 13.88 18.3834 13.8107 18.2093C13.7415 18.0352 13.624 17.8845 13.472 17.775C13.32 17.6655 13.1398 17.6017 12.9528 17.5912C12.7657 17.5807 12.5796 17.6238 12.4162 17.7156Z" fill="#5BB4D8"/>
<path d="M18.8783 16.225C18.5963 16.282 18.3386 16.4241 18.1399 16.632C17.9412 16.8399 17.8109 17.1038 17.7667 17.388C17.7224 17.6722 17.7663 17.9631 17.8925 18.2216C18.0186 18.4801 18.2209 18.6937 18.4721 18.8337C18.7234 18.9737 19.0115 19.0334 19.2977 19.0047C19.5839 18.976 19.8544 18.8603 20.0728 18.6732C20.2913 18.486 20.4471 18.2365 20.5194 17.9581C20.5917 17.6797 20.5769 17.3858 20.4771 17.1161C20.3802 16.7878 20.1585 16.5107 19.8596 16.3441C19.5607 16.1775 19.2083 16.1347 18.8783 16.225Z" fill="#5BB4D8"/>
<path d="M57.4089 17.2743C57.1411 17.1622 56.8454 17.1351 56.5618 17.1967C56.2782 17.2582 56.0203 17.4055 55.8232 17.6185C55.626 17.8315 55.4991 18.1 55.4596 18.3875C55.4202 18.6751 55.47 18.9678 55.6025 19.2261C55.7349 19.4843 55.9435 19.6956 56.2001 19.8314C56.4566 19.9671 56.7487 20.0207 57.0367 19.9849C57.3247 19.9491 57.5948 19.8257 57.8103 19.6313C58.0258 19.4369 58.1764 19.1809 58.2416 18.8981C58.3441 18.5723 58.3142 18.2192 58.1584 17.9153C58.0025 17.6114 57.7333 17.3811 57.4089 17.2743Z" fill="#5BB4D8"/>
<path d="M63.3796 16.1667C63.1116 16.0541 62.8155 16.0267 62.5314 16.0883C62.2474 16.1498 61.9891 16.2973 61.7918 16.5106C61.5944 16.724 61.4676 16.993 61.4284 17.281C61.3892 17.569 61.4396 17.8621 61.5728 18.1204C61.706 18.3788 61.9155 18.5899 62.1728 18.7251C62.4301 18.8602 62.7227 18.9129 63.011 18.876C63.2993 18.839 63.5693 18.7143 63.7842 18.5186C63.9991 18.3229 64.1486 18.0658 64.2123 17.7822C64.3123 17.4575 64.2812 17.1066 64.1255 16.8046C63.9698 16.5026 63.7021 16.2736 63.3796 16.1667Z" fill="#5BB4D8"/>
<path d="M71.2906 18.2486C71.0226 18.136 70.7265 18.1086 70.4424 18.1701C70.1584 18.2316 69.9001 18.3791 69.7028 18.5925C69.5054 18.8059 69.3785 19.0748 69.3394 19.3628C69.3002 19.6508 69.3506 19.9439 69.4838 20.2023C69.617 20.4606 69.8264 20.6717 70.0837 20.8069C70.341 20.9421 70.6337 20.9948 70.922 20.9578C71.2103 20.9209 71.4803 20.7961 71.6952 20.6004C71.9101 20.4048 72.0596 20.1476 72.1233 19.8641C72.2233 19.5394 72.1921 19.1884 72.0365 18.8865C71.8808 18.5845 71.613 18.3555 71.2906 18.2486Z" fill="#5BB4D8"/>
<path d="M76.0038 22.9702C75.7353 22.868 75.442 22.8505 75.1633 22.9199C74.8845 22.9893 74.6337 23.1423 74.4445 23.3584C74.2552 23.5745 74.1367 23.8434 74.1047 24.1288C74.0727 24.4143 74.1289 24.7028 74.2656 24.9554C74.4023 25.208 74.6131 25.4127 74.8696 25.5421C75.1261 25.6714 75.416 25.7192 75.7004 25.6789C75.9849 25.6387 76.2502 25.5124 76.4607 25.317C76.6712 25.1215 76.8169 24.8664 76.8782 24.5857C76.9742 24.2556 76.9362 23.9009 76.7725 23.5985C76.6089 23.2962 76.3327 23.0704 76.0038 22.9702Z" fill="#5BB4D8"/>
<path d="M78.3688 29.632C78.1024 29.5217 77.8086 29.4958 77.527 29.5578C77.2454 29.6199 76.9897 29.767 76.7944 29.9792C76.5992 30.1914 76.4738 30.4584 76.4353 30.7442C76.3968 31.0299 76.447 31.3207 76.5791 31.577C76.7112 31.8333 76.9189 32.0428 77.174 32.1772C77.4291 32.3116 77.7193 32.3644 78.0054 32.3285C78.2915 32.2926 78.5596 32.1696 78.7736 31.9763C78.9875 31.7829 79.1369 31.5286 79.2015 31.2476C79.2972 30.9229 79.264 30.5738 79.1089 30.2729C78.9538 29.972 78.6887 29.7425 78.3688 29.632Z" fill="#5BB4D8"/>
<path d="M25.8815 16.8663C25.6202 16.935 25.3963 17.1034 25.2577 17.3354C25.1192 17.5674 25.077 17.8444 25.1404 18.1071C25.1658 18.3739 25.2955 18.6198 25.5014 18.7914C25.7073 18.963 25.9726 19.0462 26.2396 19.0231C26.4887 18.9389 26.6997 18.7689 26.8349 18.5434C26.9701 18.318 27.0207 18.0518 26.9776 17.7924C26.9346 17.5331 26.8007 17.2975 26.5998 17.1278C26.399 16.9581 26.1444 16.8655 25.8815 16.8663Z" fill="#5BB4D8"/>
<path d="M50.722 19.6476C50.4629 19.7162 50.241 19.8838 50.104 20.1142C49.967 20.3446 49.9258 20.6195 49.9892 20.88C49.9997 21.0122 50.0363 21.1409 50.097 21.2588C50.1577 21.3766 50.2412 21.4813 50.3428 21.5665C50.4443 21.6518 50.5618 21.716 50.6884 21.7554C50.8149 21.7948 50.9481 21.8086 51.0801 21.796C51.3408 21.7291 51.5646 21.5624 51.7033 21.3317C51.842 21.1011 51.8844 20.8252 51.8212 20.5636C51.7959 20.2968 51.6661 20.0508 51.4602 19.8792C51.2544 19.7077 50.989 19.6244 50.722 19.6476Z" fill="#5BB4D8"/>
<path d="M55.3437 33.3544C57.4255 33.3544 61.4893 33.979 63.0465 36.9935L64.2956 36.269C61.6475 33.0047 59.5323 32.6965 55.3437 33.3544Z" fill="#418BAF"/>
<path d="M27.8634 34.2871C25.7816 34.2871 21.7262 34.9116 20.1606 37.9345L18.9115 37.2017C21.543 33.9457 23.6748 33.6126 27.8634 34.2871Z" fill="#418BAF"/>
<path d="M73.2475 97.3334L74.0219 95.0184H73.8804L73.4057 94.1856L72.6979 96.3174L69.0505 95.4847L69.4086 93.5694H69.4669L70.9908 89.972L70.4661 89.0643L68.9755 92.5868L66.3691 91.9539L64.9285 89.5307L64.7536 89.6389L64.2623 90.0386L65.6196 92.3203L63.3712 96.3757C63.5128 96.6839 63.6544 96.992 63.8126 97.3084L66.3108 92.795L68.6008 93.3529L67.5682 98.9322L64.4538 98.5575C64.6203 98.8573 64.7869 99.1571 64.9618 99.4569L67.6099 99.7733L69.9498 103.038L68.6758 104.128C68.8923 104.312 69.1171 104.487 69.3419 104.653L71.0657 103.171L68.3094 99.4485L68.8756 96.3757L73.2475 97.3334Z" fill="#6AC2E5"/>
<path d="M75.1711 103.013C75.1711 101.539 74.5715 100.331 73.8221 100.331C73.0726 100.331 72.4647 101.539 72.4647 103.013C72.4647 104.487 73.0726 105.694 73.8221 105.694C74.5715 105.694 75.1711 104.495 75.1711 103.013Z" fill="#529FCE"/>
<path d="M74.6548 101.297C74.761 100.906 74.7418 100.491 74.6 100.111C74.4582 99.7308 74.2008 99.4048 73.8641 99.1786C73.5274 98.9524 73.1283 98.8375 72.7229 98.8499C72.3174 98.8623 71.9261 99.0014 71.6038 99.2478C71.2816 99.4941 71.0446 99.8352 70.9263 100.223C70.808 100.611 70.8142 101.027 70.9442 101.411C71.0741 101.795 71.3212 102.129 71.6507 102.365C71.9802 102.602 72.3755 102.729 72.7811 102.73C72.9982 102.759 73.219 102.745 73.4308 102.689C73.6425 102.633 73.8411 102.535 74.0151 102.402C74.1892 102.269 74.3353 102.103 74.4451 101.913C74.5548 101.724 74.6261 101.514 74.6548 101.297Z" fill="#529FCE"/>
<path d="M77.7276 99.6817C77.8338 99.2902 77.8146 98.8753 77.6728 98.4953C77.531 98.1153 77.2736 97.7893 76.9369 97.5631C76.6002 97.3369 76.2011 97.222 75.7957 97.2344C75.3902 97.2468 74.9989 97.3859 74.6766 97.6323C74.3544 97.8786 74.1175 98.2197 73.9991 98.6077C73.8808 98.9957 73.887 99.411 74.017 99.7952C74.1469 100.179 74.394 100.513 74.7235 100.75C75.053 100.986 75.4483 101.114 75.854 101.114C76.0711 101.143 76.2918 101.129 76.5036 101.073C76.7153 101.017 76.9139 100.92 77.088 100.787C77.262 100.654 77.4081 100.487 77.5179 100.298C77.6276 100.108 77.6989 99.8989 77.7276 99.6817Z" fill="#529FCE"/>
<path d="M80.5339 97.3417C80.6401 96.9502 80.6209 96.5353 80.4791 96.1553C80.3373 95.7753 80.0799 95.4493 79.7432 95.2231C79.4065 94.9969 79.0074 94.882 78.602 94.8944C78.1966 94.9068 77.8052 95.0459 77.4829 95.2923C77.1607 95.5386 76.9238 95.8797 76.8054 96.2677C76.6871 96.6557 76.6933 97.071 76.8233 97.4552C76.9532 97.8395 77.2003 98.1734 77.5298 98.4099C77.8593 98.6465 78.2546 98.7738 78.6603 98.774C78.8774 98.8033 79.0981 98.7894 79.3099 98.7332C79.5216 98.6771 79.7202 98.5797 79.8943 98.4466C80.0683 98.3136 80.2144 98.1475 80.3242 97.9579C80.4339 97.7683 80.5052 97.5589 80.5339 97.3417Z" fill="#529FCE"/>
<path d="M78.0857 101.197C78.0857 99.715 77.4861 98.5158 76.7366 98.5158C75.9872 98.5158 75.3793 99.715 75.3793 101.197C75.3793 102.68 75.9872 103.879 76.7366 103.879C77.4861 103.879 78.0857 102.671 78.0857 101.197Z" fill="#529FCE"/>
<path d="M80.8503 98.849C80.8503 97.375 80.2424 96.1676 79.493 96.1676C78.7435 96.1676 78.144 97.375 78.144 98.849C78.144 100.323 78.7435 101.53 79.493 101.53C80.2424 101.53 80.8503 100.331 80.8503 98.849Z" fill="#529FCE"/>
<path d="M74.5965 96.2758C76.1121 96.6006 77.3362 96.2758 77.3196 95.5097C77.3029 94.7436 76.0621 93.8859 74.5465 93.5694C73.031 93.253 71.8152 93.5694 71.8235 94.3355C71.8318 95.1017 73.0809 95.951 74.5965 96.2758Z" fill="#529FCE"/>
<path d="M75.8706 97.858C77.0531 96.9586 77.636 95.7512 77.1863 95.1516C76.7366 94.552 75.4126 94.8019 74.2301 95.7012C73.0476 96.6006 72.4647 97.808 72.9227 98.4076C73.3807 99.0072 74.6964 98.7573 75.8706 97.858Z" fill="#529FCE"/>
<path d="M73.3058 100.481C73.2308 100.181 72.7312 100.056 72.1982 100.198C71.6653 100.34 71.2822 100.689 71.3655 101.031C71.4488 101.372 71.9401 101.455 72.473 101.314C73.006 101.172 73.3641 100.781 73.3058 100.481Z" fill="#8AD8FF"/>
<path d="M76.3036 98.8823C76.2287 98.5908 75.729 98.4576 75.1878 98.5991C74.6465 98.7407 74.2801 99.0904 74.355 99.3902C74.43 99.69 74.9296 99.8149 75.4709 99.6733C76.0122 99.5318 76.3786 99.1821 76.3036 98.8823Z" fill="#8AD8FF"/>
<path d="M79.1349 96.7672C79.0516 96.4674 78.5603 96.3425 78.0191 96.484C77.4778 96.6256 77.1114 96.9754 77.1863 97.2751C77.2613 97.5749 77.7609 97.6998 78.2938 97.5583C78.8268 97.4167 79.2265 97.0669 79.1349 96.7672Z" fill="#8AD8FF"/>
<path d="M75.1628 97.425C75.0795 97.1335 74.5799 97.0003 74.0469 97.1419C73.514 97.2834 73.1309 97.6332 73.2142 97.9329C73.2975 98.2327 73.7888 98.3576 74.3217 98.2161C74.8547 98.0745 75.2377 97.7331 75.1628 97.425Z" fill="#8AD8FF"/>
<path d="M17.2711 95.5514L24.1161 101.281C24.1161 101.281 19.2363 118.193 10.909 114.796C2.58163 111.398 7.34486 102.788 12.5078 104.162L17.2711 95.5514Z" fill="#8AD8FF"/>
<path d="M13.1157 106.452L12.3829 104.137H12.5078L12.9658 103.304L13.6403 105.436L17.1128 104.603L16.7714 102.688H16.6798L15.2309 99.0904L15.7305 98.1911L17.1461 101.714L19.6444 101.081L21.01 98.6574L21.1766 98.7657L21.6512 99.157L20.3522 101.447L22.5006 105.502C22.3674 105.802 22.2258 106.11 22.0759 106.427L19.6943 101.922L17.5209 102.48L18.5035 108.059L21.468 107.684C21.3098 107.984 21.1516 108.284 20.9851 108.584L18.4869 108.9L16.2635 112.164L17.4709 113.255C17.2627 113.438 17.0546 113.613 16.838 113.78L15.1726 112.298L17.779 108.484L17.2378 105.411L13.1157 106.452Z" fill="#6AC2E5"/>
<path d="M11.2837 112.131C11.2837 110.649 11.8583 109.45 12.5661 109.45C13.2739 109.45 13.8568 110.649 13.8568 112.131C13.8568 113.613 13.2823 114.812 12.5661 114.812C11.85 114.812 11.2837 113.613 11.2837 112.131Z" fill="#529FCE"/>
<path d="M11.775 110.416C11.6921 110.045 11.7265 109.658 11.8733 109.308C12.0202 108.957 12.2722 108.661 12.5946 108.461C12.917 108.26 13.2938 108.164 13.6729 108.187C14.052 108.21 14.4146 108.35 14.7106 108.588C15.0066 108.826 15.2214 109.15 15.3252 109.515C15.4289 109.881 15.4167 110.269 15.29 110.627C15.1633 110.985 14.9285 111.295 14.618 111.514C14.3076 111.732 13.9368 111.849 13.5571 111.848C13.1333 111.882 12.7128 111.752 12.3815 111.486C12.0501 111.22 11.8332 110.837 11.775 110.416Z" fill="#529FCE"/>
<path d="M8.85213 108.8C8.77112 108.431 8.8065 108.047 8.9534 107.699C9.1003 107.351 9.35148 107.058 9.67228 106.859C9.99309 106.66 10.3677 106.565 10.7445 106.588C11.1213 106.611 11.4816 106.751 11.7758 106.987C12.07 107.224 12.2836 107.546 12.3871 107.909C12.4906 108.272 12.4789 108.658 12.3537 109.014C12.2284 109.37 11.9957 109.678 11.6877 109.897C11.3798 110.115 11.0116 110.232 10.6342 110.232C10.2104 110.266 9.78987 110.137 9.45856 109.87C9.12725 109.604 8.91029 109.221 8.85213 108.8Z" fill="#529FCE"/>
<path d="M6.17069 106.46C6.08791 106.09 6.12214 105.703 6.26863 105.353C6.41513 105.003 6.66668 104.707 6.98854 104.506C7.31039 104.305 7.68668 104.209 8.06544 104.232C8.4442 104.254 8.80676 104.393 9.10303 104.63C9.3993 104.867 9.61466 105.19 9.7194 105.555C9.82413 105.919 9.81307 106.308 9.68773 106.666C9.56239 107.024 9.32894 107.334 9.01965 107.554C8.71036 107.774 8.34048 107.892 7.96107 107.892C7.53598 107.928 7.1133 107.8 6.78017 107.533C6.44705 107.267 6.2289 106.883 6.17069 106.46Z" fill="#529FCE"/>
<path d="M8.50235 110.307C8.50235 108.825 9.07695 107.626 9.7931 107.626C10.5093 107.626 11.0838 108.825 11.0838 110.307C11.0838 111.79 10.5009 112.989 9.7931 112.989C9.08528 112.989 8.50235 111.79 8.50235 110.307Z" fill="#529FCE"/>
<path d="M5.85428 107.967C5.85428 106.485 6.42887 105.286 7.1367 105.286C7.84452 105.286 8.42743 106.485 8.42743 107.967C8.42743 109.45 7.85285 110.649 7.1367 110.649C6.42055 110.649 5.85428 109.45 5.85428 107.967Z" fill="#529FCE"/>
<path d="M11.8333 105.394C10.3843 105.719 9.22682 105.394 9.23515 104.628C9.24348 103.862 10.4343 103.004 11.8749 102.68C13.3156 102.355 14.4814 102.68 14.4731 103.446C14.4647 104.212 13.2739 105.07 11.8333 105.394Z" fill="#529FCE"/>
<path d="M10.6175 106.976C9.49331 106.077 8.95202 104.861 9.36006 104.27C9.7681 103.679 11.0255 103.92 12.1747 104.82C13.3239 105.719 13.8402 106.926 13.4238 107.518C13.0074 108.109 11.7334 107.876 10.6175 106.976Z" fill="#529FCE"/>
<path d="M13.0824 109.6C13.149 109.3 13.6237 109.175 14.14 109.308C14.6563 109.441 14.9727 109.808 14.9311 110.141C14.8894 110.474 14.3898 110.566 13.8735 110.432C13.3572 110.299 13.0075 109.891 13.0824 109.6Z" fill="#8AD8FF"/>
<path d="M10.2011 108.001C10.2761 107.701 10.7507 107.576 11.267 107.718C11.7833 107.859 12.0998 108.209 12.0582 108.509C12.0165 108.809 11.5085 108.933 11.0006 108.792C10.4926 108.65 10.1262 108.301 10.2011 108.001Z" fill="#8AD8FF"/>
<path d="M7.51973 105.886C7.59467 105.586 8.06932 105.461 8.57729 105.602C9.08526 105.744 9.41002 106.094 9.41002 106.385C9.41002 106.677 8.86042 106.81 8.34412 106.677C7.82783 106.543 7.4198 106.177 7.51973 105.886Z" fill="#8AD8FF"/>
<path d="M11.292 106.543C11.367 106.244 11.8416 106.119 12.3579 106.26C12.8742 106.402 13.1907 106.752 13.149 107.051C13.1074 107.351 12.5994 107.476 12.0914 107.335C11.5835 107.193 11.2171 106.843 11.292 106.543Z" fill="#8AD8FF"/>
<path d="M55.7601 102.263H33.5927V104.345H55.7601V102.263Z" fill="#8AD8FF"/>
<path d="M46.4084 101.772L42.3697 101.922L44.1601 105.328L46.4084 101.772Z" fill="#EFDB65"/>
<path opacity="0.5" d="M60.2651 55.2636C60.44 54.3809 58.9161 53.3483 56.8593 52.932C54.8024 52.5156 52.9871 52.932 52.8122 53.7647C52.6373 54.5974 54.1695 55.68 56.2264 56.0963C58.2832 56.5127 60.0903 56.1463 60.2651 55.2636Z" fill="#DD7F33"/>
<path opacity="0.5" d="M30.2784 55.1387C30.1618 54.256 28.3881 53.7564 26.3062 54.0312C24.2244 54.306 22.6256 55.2303 22.7421 56.113C22.8587 56.9957 24.6408 57.4954 26.7143 57.2289C28.7878 56.9624 30.395 56.0214 30.2784 55.1387Z" fill="#DD7F33"/>
</g>
<defs>
<filter id="filter0_d_4_1428" x="0" y="0" width="86.8503" height="155.297" filterUnits="userSpaceOnUse" color-interpolation-filters="sRGB">
<feFlood flood-opacity="0" result="BackgroundImageFix"/>
<feColorMatrix in="SourceAlpha" type="matrix" values="0 0 0 0 0 0 0 0 0 0 0 0 0 0 0 0 0 0 127 0" result="hardAlpha"/>
<feOffset dx="2" dy="4"/>
<feGaussianBlur stdDeviation="2"/>
<feComposite in2="hardAlpha" operator="out"/>
<feColorMatrix type="matrix" values="0 0 0 0 0 0 0 0 0 0 0 0 0 0 0 0 0 0 0.25 0"/>
<feBlend mode="normal" in2="BackgroundImageFix" result="effect1_dropShadow_4_1428"/>
<feBlend mode="normal" in="SourceGraphic" in2="effect1_dropShadow_4_1428" result="shape"/>
</filter>
<linearGradient id="paint0_linear_4_1428" x1="18237.2" y1="18411.6" x2="18342.7" y2="21202.4" gradientUnits="userSpaceOnUse">
<stop stop-color="#C04B00"/>
<stop offset="0.99" stop-color="#B73400"/>
</linearGradient>
</defs>
</svg>
