<svg width="108" height="147" viewBox="0 0 108 147" fill="none" xmlns="http://www.w3.org/2000/svg">
<g filter="url(#filter0_d_4_1424)">
<path d="M84.0371 12.3546C83.7123 9.85644 81.9303 8.03276 80.0649 8.27425C78.1996 8.51574 76.9339 10.7725 77.2669 13.229C77.6 15.6856 79.3655 17.5509 81.2391 17.3011C83.1128 17.0513 84.3619 14.8445 84.0371 12.3546Z" fill="#632B15"/>
<path d="M82.6797 19.6328C82.255 16.3518 79.915 13.9535 77.4501 14.27C74.9852 14.5864 73.3364 17.5176 73.7611 20.7986C74.1858 24.0796 76.5258 26.4779 78.9907 26.1614C81.4556 25.845 83.1044 22.9221 82.6797 19.6328Z" fill="#632B15"/>
<path d="M84.9364 27.3606C84.3702 23.0303 81.2807 19.8659 78.033 20.2906C74.7854 20.7153 72.6036 24.5626 73.1699 28.8928C73.7362 33.223 76.8256 36.3874 80.0732 35.9627C83.3209 35.538 85.5027 31.6908 84.9364 27.3606Z" fill="#632B15"/>
<path d="M91.9397 126.389L67.374 128.263C67.8487 109.352 62.794 88.7664 58.4388 72.7113L70.5135 67.9896C70.5135 67.9896 96.7446 74.1352 91.9397 126.389Z" fill="#96273D"/>
<path d="M77.1754 68.7974C114.074 86.2848 99.7092 115.306 94.6628 124.382L77.1754 68.7974Z" fill="#BA3E50"/>
<path d="M78.2345 68.6506L77.3624 73.7289L82.8612 74.6732L83.7332 69.5948L78.2345 68.6506Z" fill="#AD688C"/>
<path d="M69.1977 59.8289L63.2354 59.5707V70.6045L70.705 69.5719L69.1977 59.8289Z" fill="#FABE82"/>
<path d="M35.5386 107.028C39.2859 99.7418 52.6097 74.3434 61.1452 70.8043L59.8961 79.548C59.8961 79.548 47.6133 88.7081 36.9959 107.653L35.5386 107.028Z" fill="#AD688C"/>
<path d="M57.8892 77.816C53.5839 81.7465 44.9318 92.4138 37.5538 105.571L36.5212 105.138L35.5386 107.028L36.9792 107.686C42.3847 97.8475 49.3796 88.9702 57.681 81.4134C58.0557 81.0386 58.0974 78.3406 57.8892 77.816Z" fill="#935177"/>
<path d="M43.4163 99.6003L39.9854 97.177L38.2117 99.542L42.0756 102.573L43.4163 99.6003Z" fill="#844167"/>
<path d="M78.4744 97.9765C79.3987 87.892 79.6569 72.1617 76.5508 69.7634C72.1789 66.4325 61.5616 68.7225 58.2306 72.8862C55.5825 76.2171 60.3457 83.9199 55.5408 102.865C52.4681 112.708 47.1303 126.531 41.9257 138.572L43.3829 138.364C46.9554 131.877 54.8164 119.761 60.0376 111.792C63.9515 109.135 68.8397 108.702 71.6043 111.925C73.3864 120.943 75.5265 132.335 76.3093 138.572H77.5167C77.0671 124.491 78.1829 107.969 78.4744 97.9765Z" fill="#AD688C"/>
<path d="M62.1195 89.0245H74.0942L67.5323 79.9727L62.1195 89.0245Z" fill="#EDABD1"/>
<path d="M70.5218 110.917L77.1837 107.661L77.6666 103.148L68.2318 109.535L70.5218 110.917Z" fill="#935177"/>
<path d="M54.7498 105.879L60.7705 110.992L64.6843 109.468L55.1495 103.231L54.7498 105.879Z" fill="#935177"/>
<path d="M58.239 112.091C53.3758 119.952 46.2059 131.752 42.6834 138.472L43.383 138.372C46.9554 131.885 54.8164 119.769 60.0377 111.8C61.5493 110.747 63.2807 110.052 65.1007 109.768C62.6197 109.764 60.2072 110.581 58.239 112.091Z" fill="#935177"/>
<path d="M76.5508 69.7634C74.8354 68.456 72.1456 68.0313 69.3227 68.2312C70.8057 68.31 72.2418 68.7781 73.4863 69.5885C76.6591 71.8619 76.8672 87.6256 76.2343 97.7266C76.2343 107.719 75.6098 124.274 76.5008 138.347H76.3259V138.572H77.5334C77.0504 124.482 78.1663 107.961 78.4577 97.9681C79.3987 87.892 79.6569 72.1284 76.5508 69.7634Z" fill="#935177"/>
<path d="M77.0005 97.1437C75.2351 97.0355 70.9631 99.1173 70.2387 89.2327C69.8972 84.5528 76.9005 84.7526 76.9005 84.7526L77.0005 97.1437Z" fill="#935177"/>
<path d="M54.6998 105.021L63.4435 110.159H69.2727L78.2912 104.747L78.4328 101.549L55.2494 101.416L54.6998 105.021Z" fill="#FFD95F"/>
<path d="M75.3516 101.532C74.0193 103.939 71.188 106.104 67.6572 107.195C61.878 108.969 56.2404 107.286 55.0579 103.431C55.0579 103.323 55.0163 103.214 54.9913 103.106L54.6915 105.021L63.4352 110.151H69.2644L78.2912 104.738L78.4244 101.549L75.3516 101.532Z" fill="#EDC148"/>
<path d="M35.3137 117.263C38.0201 115.497 44.3323 105.313 44.1824 103.714C44.0325 102.115 38.678 97.227 36.1548 97.585C33.6316 97.9431 26.5534 107.919 26.4285 110.417C26.3036 112.916 32.8155 118.87 35.3137 117.263Z" fill="#EFAF62"/>
<path d="M40.0936 99.1839C40.7848 105.313 33.8232 102.515 32.7823 103.606C26.1204 110.617 33.7149 117.462 36.5212 115.714C39.1194 114.09 44.7653 104.747 44.5071 103.289C44.3489 102.423 42.2754 100.516 40.0936 99.1839Z" fill="#D89348"/>
<g style="mix-blend-mode:multiply" opacity="0.4">
<path d="M39.6024 110.867L41.476 109.393L41.3344 109.327V108.286L39.6024 109.635L36.5879 106.404L37.8786 104.988L37.9286 105.046L41.1346 102.981L41.0596 101.857L37.9119 103.881L35.7884 101.516L35.6469 98.4095H35.422H34.7642L34.8974 101.341L30.7337 103.298C30.7337 103.656 30.7337 104.022 30.6838 104.405L35.2721 102.232L37.1374 104.314L33.3985 108.436L30.6671 105.937C30.6671 106.312 30.6671 106.695 30.6671 107.078L32.9904 109.193L33.565 113.657L31.8246 113.715C31.9412 114.023 32.0578 114.331 32.191 114.639L34.5477 114.556L33.8815 109.343L35.9383 107.07L39.6024 110.867Z" fill="#D89348"/>
</g>
<path d="M77.0837 83.3037C78.7491 82.7374 79.7901 81.8714 79.4487 81.3717C79.1072 80.8721 77.4834 80.9304 75.8346 81.4966C74.1858 82.0629 73.1199 82.9373 73.4696 83.4286C73.8194 83.9199 75.4349 83.8699 77.0837 83.3037Z" fill="#F9C791"/>
<path d="M73.6195 85.5021C73.7944 84.5777 73.4447 83.745 72.8534 83.6284C72.2622 83.5118 71.6293 84.178 71.4627 85.1024C71.2962 86.0267 71.6376 86.8678 72.2289 86.976C72.8201 87.0843 73.4863 86.4264 73.6195 85.5021Z" fill="#F9C791"/>
<path d="M73.6695 88.3334C73.5863 87.3924 73.0283 86.6679 72.4204 86.7345C71.8125 86.8011 71.3962 87.5672 71.4794 88.5249C71.5627 89.4825 72.1206 90.1903 72.7285 90.1237C73.3364 90.0571 73.7528 89.266 73.6695 88.3334Z" fill="#F9C791"/>
<path d="M74.5273 91.1647C74.2525 90.2653 73.5613 89.6741 72.9783 89.8489C72.3954 90.0238 72.1456 90.8982 72.4204 91.7976C72.6952 92.6969 73.3947 93.2881 73.9693 93.1049C74.5439 92.9217 74.8021 92.0557 74.5273 91.1647Z" fill="#F9C791"/>
<path d="M74.5355 93.2048C77.0337 93.7461 85.5943 91.7975 86.3604 90.7066C87.1265 89.6157 86.4936 82.7957 84.8198 81.4883C83.1461 80.1809 74.4023 82.0878 72.9867 83.5618C71.571 85.0357 72.2205 92.6968 74.5355 93.2048Z" fill="#EFAF62"/>
<path d="M84.8198 81.4966C84.2246 81.1707 83.5481 81.0233 82.8712 81.0719C83.5291 83.5701 83.6623 86.9593 83.1377 87.6921C82.4715 88.6331 76.0178 90.1903 72.6453 90.2736C73.02 91.7892 73.6528 93.0133 74.5355 93.2048C77.0337 93.7461 85.5943 91.7975 86.3604 90.7066C87.1265 89.6157 86.4936 82.804 84.8198 81.4966Z" fill="#D89348"/>
<g style="mix-blend-mode:multiply" opacity="0.4">
<path d="M84.3535 82.7041L82.688 80.9637C82.688 81.022 82.6464 81.0719 82.6297 81.1219L81.6055 81.3217L83.1627 82.9206L80.3647 86.5347L78.7991 85.4021L78.8491 85.3439L76.4009 82.296L75.2767 82.5125L77.675 85.4937L75.6098 88.0586L72.562 88.6665V88.8913L72.6453 89.5825L75.5182 89.0079L78.0164 93.0133C78.3745 93.0133 78.7408 92.955 79.1239 92.9051L76.3926 88.4499L78.1996 86.2016L82.7463 89.5325L80.5729 92.6969C80.9393 92.6386 81.314 92.5803 81.6887 92.5054L83.4791 89.774L87.8093 88.5249L88.0925 90.3236C88.3839 90.1571 88.6754 89.9905 88.9252 89.8073L88.5505 87.3674L83.4874 88.8247L80.9892 87.0176L84.3535 82.7041Z" fill="#D89348"/>
</g>
<path d="M70.5135 67.9646C74.4023 69.3553 88.284 69.0972 83.8372 131.377C83.8372 131.377 95.7786 132.01 97.9937 131.128C102.59 81.7714 87.7094 68.2394 70.5135 67.9646Z" fill="#E24B61"/>
<path d="M95.3706 88.0003C96.2949 93.6712 95.204 98.3595 91.9564 100.316C89.9079 101.549 87.3014 101.516 84.5034 100.458C84.884 110.769 84.6616 121.093 83.8372 131.377C83.8372 131.377 95.7786 132.01 97.9937 131.128C99.8091 111.617 98.6016 97.6933 95.3706 88.0003Z" fill="#CC4C59"/>
<path d="M33.2069 104.888C31.1417 103.423 29.0932 102.773 28.3854 103.756C27.6776 104.738 28.7935 106.728 30.8836 108.194C32.9738 109.66 34.0647 109.643 34.7642 108.66C35.4637 107.678 35.2638 106.354 33.2069 104.888Z" fill="#F9C791"/>
<path d="M26.6117 108.902C25.5874 110.368 25.3043 111.941 26.2952 112.633C27.2862 113.324 28.9184 112.691 29.9426 111.225C30.9669 109.76 30.7754 108.852 29.7927 108.161C28.8101 107.47 27.6276 107.436 26.6117 108.902Z" fill="#F9C791"/>
<path d="M29.6595 111.683C28.6353 113.149 28.3521 114.714 29.3431 115.406C30.334 116.097 31.9662 115.472 32.9905 114.007C34.0147 112.541 33.8232 111.633 32.8406 110.942C31.858 110.251 30.6755 110.184 29.6595 111.683Z" fill="#F9C791"/>
<path d="M33.1486 113.515C32.1244 114.981 31.8496 116.555 32.8405 117.246C33.8315 117.937 35.4553 117.304 36.4796 115.839C37.5038 114.373 37.3123 113.465 36.3296 112.782C35.347 112.1 34.1646 112.025 33.1486 113.515Z" fill="#F9C791"/>
<path d="M32.4825 105.529C34.506 104.022 35.7551 102.265 35.0306 101.291C34.3061 100.316 32.0827 100.766 30.0342 102.273C27.9857 103.781 27.6776 104.863 28.3687 105.829C29.0599 106.795 30.4506 107.045 32.4825 105.529Z" fill="#F9C791"/>
<path d="M43.1082 138.93L47.3385 131.944L45.3982 130.561L42.4836 136.39L38.1784 138.93H43.1082Z" fill="#E24B61"/>
<path d="M75.8596 138.93L75.3766 131.253L77.4584 130.145L77.6666 136.257L80.7894 138.93H75.8596Z" fill="#E24B61"/>
<path d="M63.0189 69.4886L69.8223 77.3996L71.3462 68.0979C68.8064 67.6649 66.4497 68.2395 63.0189 69.4886Z" fill="#FFD95F"/>
<path d="M33.3151 112.274C33.49 111.983 33.1319 111.442 32.4824 110.992C31.8329 110.542 31.225 110.476 31.0585 110.759C30.8919 111.042 31.2417 111.592 31.8912 112.041C32.5407 112.491 33.1403 112.558 33.3151 112.274Z" fill="#EFAF62"/>
<path d="M36.6628 114.206C36.8377 113.915 36.4796 113.374 35.8301 112.932C35.1805 112.491 34.5809 112.408 34.4061 112.699C34.2312 112.991 34.5976 113.532 35.2388 113.973C35.88 114.415 36.4962 114.498 36.6628 114.206Z" fill="#EFAF62"/>
<path d="M30.2341 109.668C30.409 109.385 30.0509 108.835 29.4014 108.394C28.7518 107.953 28.1522 107.869 27.9774 108.161C27.8025 108.452 28.1606 108.994 28.8101 109.435C29.4596 109.876 30.0675 109.959 30.2341 109.668Z" fill="#EFAF62"/>
<path d="M69.1228 102.107H63.8516V103.839H69.1228V102.107Z" fill="#AD688C"/>
<path d="M61.6615 70.0382C61.2118 68.2561 59.6962 69.9965 58.3306 70.3463C58.1063 70.3661 57.889 70.435 57.6944 70.5483C57.4998 70.6616 57.3325 70.8163 57.2045 71.0016C57.0765 71.1868 56.9909 71.398 56.9538 71.6201C56.9167 71.8422 56.929 72.0697 56.9899 72.2866C57.4312 74.0686 58.572 74.2518 59.9627 73.9021C61.3534 73.5523 62.1029 71.8202 61.6615 70.0382Z" fill="#BA3E50"/>
<path d="M60.0376 71.7453C59.9569 71.5645 59.8106 71.4209 59.6283 71.3437C59.4459 71.2664 59.2411 71.2611 59.055 71.3289C58.5887 71.4372 58.2722 71.8036 58.3472 72.1617C58.4295 72.3429 58.5778 72.4861 58.7619 72.5619C58.946 72.6377 59.152 72.6404 59.3381 72.5697C59.8045 72.4364 60.1126 72.0784 60.0376 71.7453Z" fill="#FFD95F"/>
<g style="mix-blend-mode:multiply" opacity="0.5">
<path d="M67.6072 74.9014C73.6862 74.1269 78.8907 72.4032 81.7137 70.4962C80.3051 69.7942 78.8292 69.2362 77.3085 68.8307L77.1753 68.7724C74.9956 68.2316 72.7592 67.9521 70.5135 67.9397H70.4552L69.7723 63.5345C68.6231 63.6012 67.424 63.7011 66.2082 63.8593C65.1922 63.9925 64.193 64.1508 63.227 64.3256V69.3803L63.0188 69.4553L63.1354 69.5968C62.6357 69.7967 62.1611 70.0132 61.7031 70.2464C61.7031 70.1631 61.7031 70.0882 61.6615 70.0049C61.2118 68.2228 59.6962 69.9632 58.3305 70.313C58.1062 70.3328 57.889 70.4017 57.6944 70.515C57.4998 70.6283 57.3325 70.783 57.2045 70.9683C57.0765 71.1535 56.9909 71.3647 56.9538 71.5868C56.9167 71.8089 56.929 72.0365 56.9899 72.2533C57.0742 72.6422 57.2356 73.0103 57.4645 73.3358C56.9565 73.8022 56.4319 74.3185 55.9073 74.8764C59.7872 75.4269 63.7249 75.4353 67.6072 74.9014Z" fill="#66493D"/>
</g>
<path d="M51.1357 59.146C47.3884 64.3506 37.1874 71.0125 34.6892 63.1015C34.6892 63.1015 30.3174 69.5552 27.8191 63.3097C27.8191 63.3097 20.3245 73.3025 12.2054 69.9716C4.08621 66.6406 8.66625 60.6033 8.66625 60.6033C8.66625 60.6033 2.21256 63.9342 2.00438 57.2724C1.79619 50.6105 9.08262 52.9005 9.08262 52.9005C9.08262 52.9005 -2.15928 46.8965 17.2185 22.7472C17.2185 22.7472 9.30748 11.0889 41.5759 5.05158C41.5759 5.05158 70.3053 -7.23126 75.9262 6.50886C75.9262 6.50886 91.9564 4.42703 74.0526 23.9963C56.1488 43.5656 51.1357 59.146 51.1357 59.146Z" fill="#874223"/>
<path d="M47.6216 43.399C32.2493 49.1865 17.0186 50.1525 5.9099 46.9548C6.33459 51.4099 9.09928 52.9005 9.09928 52.9005C9.09928 52.9005 1.81286 50.6105 2.02104 57.2724C2.22922 63.9342 8.68292 60.6033 8.68292 60.6033C8.68292 60.6033 4.10288 66.6406 12.222 69.9716C20.3412 73.3025 27.8358 63.3097 27.8358 63.3097C30.334 69.5552 34.7059 63.1015 34.7059 63.1015C37.2041 71.0125 47.4051 64.3506 51.1524 59.146C51.1524 59.146 54.4833 48.6785 65.5503 34.164C59.9654 37.9491 53.9461 41.0496 47.6216 43.399Z" fill="#632B15"/>
<path d="M80.2814 63.3097C86.9433 59.7705 97.5024 49.3114 86.7351 32.9898C78.133 19.9408 72.1539 13.3206 55.0912 16.6099C47.1802 18.1338 27.3112 35.8794 37.6038 53.3168C47.8048 70.5378 75.285 65.9827 80.2814 63.3097Z" fill="#FABE82"/>
<path d="M90.7989 40.7176L45.5231 48.2788L45.8895 50.9602L91.1736 43.399L90.7989 40.7176Z" fill="#EFA065"/>
<path style="mix-blend-mode:multiply" opacity="0.3" d="M80.2814 63.3097C86.9433 59.7705 97.5024 49.3114 86.7351 32.9898C78.133 19.9408 72.1539 13.3206 55.0912 16.6099C47.1802 18.1338 27.3112 35.8794 37.6038 53.3168C47.8048 70.5378 75.285 65.9827 80.2814 63.3097Z" fill="url(#paint0_linear_4_1424)"/>
<path d="M35.7301 51.768L91.9647 42.4997L88.1591 31.0579L34.0147 42.9827L35.7301 51.768Z" fill="#CC4C59"/>
<path d="M48.1712 39.7933L32.9071 42.8411L35.7218 51.768L51.6187 49.1449C49.4703 47.0797 48.471 42.3747 48.1712 39.7933Z" fill="#B23B4D"/>
<path d="M67.9486 25.6951C76.1844 26.3862 81.9053 19.3829 75.335 13.2041L66.8661 15.3359C66.8661 15.3359 82.6631 18.3087 67.9486 25.6951Z" fill="#874223"/>
<path d="M43.1997 26.7443C47.3634 27.8602 53.6506 21.5814 53.8588 16.052L46.9804 16.4101C46.9804 16.4101 51.6437 23.6715 43.1997 26.7443Z" fill="#874223"/>
<path d="M68.6231 19.7327C65.0424 24.6375 55.0829 21.9311 60.4207 13.7287L63.9099 12.6378C63.9099 12.6378 58.8885 21.673 68.6231 19.7327Z" fill="#874223"/>
<path d="M38.6447 51.4433C33.8564 51.0269 31.1501 53.3169 31.9828 56.6478C32.8155 59.9788 40.102 59.3542 42.6002 57.0642C45.0984 54.7742 38.6447 51.4433 38.6447 51.4433Z" fill="#FABE82"/>
<path d="M37.6205 53.0254C34.5893 52.7589 32.8739 54.2162 33.3985 56.3564C33.9231 58.4965 38.5448 58.0718 40.127 56.6228C41.7092 55.1739 37.6205 53.0254 37.6205 53.0254Z" fill="#EFA065"/>
<path d="M38.9111 53.6167C37.1624 53.4668 36.1797 54.2995 36.4878 55.5153C36.796 56.7311 39.4441 56.4979 40.3518 55.6652C41.2594 54.8325 38.9111 53.6167 38.9111 53.6167Z" fill="#FABE82"/>
<path d="M38.6447 51.4432C42.0422 50.8436 41.351 54.083 45.9311 52.5591C49.7617 51.285 48.5709 47.5627 43.4329 47.4211C38.2949 47.2795 44.5321 42.941 41.351 41.1756C36.3546 38.4026 44.5487 32.8482 40.5183 32.715C36.4879 32.5818 38.3032 26.0531 34.8307 28.4098C31.3582 30.7664 18.3176 39.0937 17.9013 43.399C17.4849 47.7042 24.6964 52.2759 29.2764 50.752C33.8564 49.2281 30.817 52.8339 38.6447 51.4432Z" fill="#874223"/>
<path d="M57.9391 46.8132C57.9391 46.8132 53.7005 38.7274 59.8627 37.4117C66.025 36.0959 68.0236 43.4323 67.1825 44.5232C66.3414 45.6141 60.862 46.6134 57.9391 46.8132Z" fill="#96273D"/>
<path d="M58.5804 46.8049C58.5804 46.8049 54.6748 39.1437 60.3374 37.8946C66 36.6455 67.832 43.6072 67.0743 44.6398C66.3165 45.6724 61.2618 46.6134 58.5804 46.8049Z" fill="#FFECDE"/>
<path d="M84.112 42.1915C84.112 42.1915 85.0696 33.5977 79.2738 34.4638C73.478 35.3298 74.2191 42.5163 75.3183 43.2075C76.4175 43.8987 81.5139 42.9743 84.112 42.1915Z" fill="#96273D"/>
<path d="M84.3618 42.2248C84.3618 42.2248 85.2362 34.0474 79.7568 34.8468C74.2774 35.6462 75.0019 42.508 76.0428 43.1741C77.0837 43.8403 81.9469 42.9743 84.3618 42.2248Z" fill="#FFECDE"/>
<path d="M66.6995 50.6438L76.0012 49.478C76.0012 49.478 74.6688 55.7568 71.6959 55.9567C69.2977 56.1232 66.6995 50.6438 66.6995 50.6438Z" fill="#4C301D"/>
<path d="M69.306 53.4834L67.4823 50.9186L75.2517 50.0942L74.0942 52.9838L69.306 53.4834Z" fill="#FFEADC"/>
<path d="M74.0443 46.0637C73.9776 45.3976 72.945 44.9562 71.7459 45.0811C70.5468 45.206 69.6307 45.8389 69.6974 46.5051C69.764 47.1713 70.7882 47.6126 71.9874 47.496C73.1865 47.3795 74.1109 46.7216 74.0443 46.0637Z" fill="#EFA065"/>
<path d="M73.8027 45.6807C73.7528 45.1311 72.8951 44.7647 71.9041 44.848C70.9132 44.9312 70.1554 45.4725 70.2387 46.0221C70.3219 46.5717 71.1463 46.9465 72.1456 46.8549C73.1449 46.7633 73.861 46.2303 73.8027 45.6807Z" fill="#FABE82"/>
<path d="M64.4595 42.941C64.3415 42.5417 64.1121 42.1842 63.7982 41.9106C63.4843 41.637 63.0989 41.4586 62.6872 41.3962C62.2755 41.3338 61.8545 41.3901 61.4737 41.5584C61.0928 41.7268 60.7678 42.0002 60.5369 42.3467C60.3059 42.6932 60.1785 43.0983 60.1695 43.5146C60.1606 43.931 60.2706 44.3412 60.4865 44.6972C60.7024 45.0533 61.0154 45.3404 61.3887 45.5249C61.762 45.7094 62.1801 45.7837 62.5941 45.739C63.212 45.6144 63.7554 45.2499 64.105 44.7255C64.4546 44.201 64.5821 43.5593 64.4595 42.941Z" fill="#71A8B5"/>
<path d="M82.2633 40.0014C82.1583 39.6173 81.9458 39.2711 81.6508 39.0037C81.3557 38.7363 80.9903 38.5587 80.5977 38.4919C80.2051 38.425 79.8017 38.4718 79.4347 38.6266C79.0678 38.7813 78.7527 39.0377 78.5266 39.3655C78.3004 39.6933 78.1727 40.0789 78.1583 40.4768C78.1439 40.8748 78.2434 41.2686 78.4453 41.6119C78.6472 41.9552 78.9429 42.2336 79.2977 42.4145C79.6525 42.5954 80.0516 42.6712 80.448 42.6329C81.035 42.5196 81.554 42.1803 81.8935 41.6882C82.233 41.1961 82.3658 40.5904 82.2633 40.0014Z" fill="#71A8B5"/>
<path d="M81.2724 39.5684C81.2335 39.4141 81.1513 39.2741 81.0354 39.1651C80.9194 39.056 80.7747 38.9825 80.6182 38.9531C80.4618 38.9238 80.3003 38.9399 80.1527 38.9996C80.0052 39.0592 79.8778 39.1599 79.7857 39.2897C79.6936 39.4195 79.6406 39.5729 79.633 39.7319C79.6254 39.8909 79.6635 40.0487 79.7429 40.1867C79.8222 40.3246 79.9394 40.437 80.0806 40.5104C80.2218 40.5839 80.3811 40.6153 80.5396 40.601C80.7722 40.5583 80.9789 40.4264 81.1157 40.2336C81.2526 40.0407 81.3088 39.8021 81.2724 39.5684Z" fill="#9BD3DD"/>
<path d="M63.4769 42.4164C63.4682 42.1675 63.3621 41.932 63.1814 41.7607C63.0007 41.5894 62.7598 41.4958 62.5109 41.5004C62.2659 41.545 62.0487 41.6848 61.9066 41.8893C61.7646 42.0938 61.7094 42.3462 61.7531 42.5913C61.7488 42.716 61.7711 42.8403 61.8188 42.9556C61.8665 43.071 61.9383 43.1748 62.0295 43.2601C62.1206 43.3454 62.229 43.4102 62.3473 43.4502C62.4655 43.4901 62.591 43.5042 62.7152 43.4916C62.8394 43.479 62.9595 43.44 63.0673 43.3771C63.1752 43.3142 63.2683 43.229 63.3405 43.1271C63.4126 43.0253 63.4621 42.9091 63.4857 42.7865C63.5092 42.664 63.5062 42.5377 63.4769 42.4164Z" fill="#9BD3DD"/>
<path d="M67.0659 50.6688C67.0578 50.5635 67.0191 50.463 66.9545 50.3794C66.8899 50.2959 66.8024 50.2331 66.7025 50.1987C66.6027 50.1643 66.4951 50.1599 66.3928 50.1859C66.2905 50.212 66.198 50.2673 66.1267 50.3452C66.0555 50.4232 66.0086 50.5202 65.9918 50.6244C65.9751 50.7286 65.9891 50.8355 66.0323 50.9318C66.0754 51.0282 66.1458 51.1098 66.2348 51.1666C66.3238 51.2235 66.4274 51.253 66.5329 51.2517C66.6062 51.2485 66.6782 51.2309 66.7446 51.1998C66.8111 51.1688 66.8708 51.1249 66.9203 51.0708C66.9698 51.0166 67.0081 50.9533 67.0331 50.8843C67.0581 50.8153 67.0693 50.7421 67.0659 50.6688Z" fill="#4C301D"/>
<path d="M76.5341 49.5946C76.5436 49.5184 76.5368 49.4411 76.5142 49.3678C76.4915 49.2945 76.4535 49.2268 76.4027 49.1693C76.3519 49.1118 76.2895 49.0657 76.2196 49.0342C76.1496 49.0026 76.0737 48.9863 75.997 48.9863C75.9203 48.9863 75.8444 49.0026 75.7745 49.0342C75.7045 49.0657 75.642 49.1118 75.5913 49.1693C75.5405 49.2268 75.5025 49.2945 75.4798 49.3678C75.4572 49.4411 75.4504 49.5184 75.4599 49.5946C75.4504 49.6707 75.4572 49.748 75.4798 49.8214C75.5025 49.8947 75.5405 49.9623 75.5913 50.0199C75.642 50.0774 75.7045 50.1235 75.7745 50.155C75.8444 50.1866 75.9203 50.2029 75.997 50.2029C76.0737 50.2029 76.1496 50.1866 76.2196 50.155C76.2895 50.1235 76.3519 50.0774 76.4027 50.0199C76.4535 49.9623 76.4915 49.8947 76.5142 49.8214C76.5368 49.748 76.5436 49.6707 76.5341 49.5946Z" fill="#4C301D"/>
<path d="M60.887 50.5605C60.7621 49.8443 59.0883 49.5362 57.1397 49.8693C55.1911 50.2024 53.7172 51.0601 53.8088 51.7763C53.9004 52.4924 55.6158 52.8089 57.5561 52.4675C59.4964 52.126 61.012 51.285 60.887 50.5605Z" fill="#EFA065"/>
<path d="M88.7836 46.3303C88.6587 45.6141 86.9849 45.306 85.0363 45.6391C83.0877 45.9722 81.6138 46.8299 81.7054 47.5461C81.797 48.2622 83.5124 48.5703 85.4527 48.2372C87.393 47.9041 88.9086 47.0464 88.7836 46.3303Z" fill="#EFA065"/>
<path d="M52.6097 37.6198C52.5014 37.7947 57.0565 33.4561 58.697 32.74C58.697 32.74 55.9573 31.7324 52.6097 37.6198Z" fill="#874223"/>
<path d="M81.7304 30.1086C81.9219 30.1669 75.8096 30.1086 74.1775 30.6415C74.1775 30.6415 75.3766 28.0767 81.7304 30.1086Z" fill="#874223"/>
<path d="M29.9925 53.3918C25.4125 52.9754 18.6091 46.7299 22.2148 39.6517C22.2148 39.6517 15.553 44.3649 15.9693 49.3614L29.9925 53.3918Z" fill="#632B15"/>
</g>
<defs>
<filter id="filter0_d_4_1424" x="0" y="0" width="107.671" height="146.93" filterUnits="userSpaceOnUse" color-interpolation-filters="sRGB">
<feFlood flood-opacity="0" result="BackgroundImageFix"/>
<feColorMatrix in="SourceAlpha" type="matrix" values="0 0 0 0 0 0 0 0 0 0 0 0 0 0 0 0 0 0 127 0" result="hardAlpha"/>
<feOffset dx="2" dy="4"/>
<feGaussianBlur stdDeviation="2"/>
<feComposite in2="hardAlpha" operator="out"/>
<feColorMatrix type="matrix" values="0 0 0 0 0 0 0 0 0 0 0 0 0 0 0 0 0 0 0.25 0"/>
<feBlend mode="normal" in2="BackgroundImageFix" result="effect1_dropShadow_4_1424"/>
<feBlend mode="normal" in="SourceGraphic" in2="effect1_dropShadow_4_1424" result="shape"/>
</filter>
<linearGradient id="paint0_linear_4_1424" x1="48897.5" y1="17017.7" x2="49830" y2="18650.8" gradientUnits="userSpaceOnUse">
<stop stop-color="#C04B00"/>
<stop offset="0.99" stop-color="#B73400"/>
</linearGradient>
</defs>
</svg>
