<svg width="94" height="163" viewBox="0 0 94 163" fill="none" xmlns="http://www.w3.org/2000/svg">
<g filter="url(#filter0_d_4_1432)">
<path d="M66.3121 83.1872C74.7061 84.6195 85.0986 93.9462 86.1229 98.0349C87.1471 102.124 77.3708 113.69 77.3708 113.69L76.7546 110.618C76.7546 110.618 84.6906 101.924 82.642 98.0349C80.5935 94.146 68.7354 91.1898 68.7354 91.1898L66.3121 83.1872Z" fill="#C93C31"/>
<path d="M78.2618 109.885C78.2618 109.885 86.2228 101.191 84.1493 97.3437C82.0758 93.4965 70.2759 90.4737 70.2759 90.4737L68.1941 83.6869C67.5751 83.5062 66.9469 83.3589 66.3121 83.2455L68.8103 91.2315C68.8103 91.2315 80.6351 94.2043 82.6837 98.0932C84.7322 101.982 76.7546 110.667 76.7546 110.667L77.3708 113.74C77.3708 113.74 77.9038 113.116 78.7032 112.075L78.2618 109.885Z" fill="#AF2D27"/>
<path d="M79.5026 103.048C81.0923 103.699 82.5196 104.691 83.6837 105.955C84.8478 107.218 85.7202 108.722 86.2394 110.359L77.3708 113.69C77.3708 113.69 79.2111 120.244 74.298 117.379C69.3849 114.515 79.5026 103.048 79.5026 103.048Z" fill="#FCDE63"/>
<path d="M76.7296 117.596C74.9142 112.283 80.0605 107.803 82.9168 105.213C81.8914 104.327 80.7409 103.598 79.5026 103.048C79.5026 103.048 69.3849 114.523 74.298 117.396C75.747 118.229 76.6047 118.229 77.1043 117.879C76.9794 117.787 76.7879 117.746 76.7296 117.596Z" fill="#EAC23F"/>
<path d="M45.1357 80.6308L63.0145 79.5898L63.5225 82.7293L52.5637 84.8111L45.1357 80.6308Z" fill="#EFBF48"/>
<path d="M59.5753 146.259C65.1629 145.426 68.4439 85.2691 58.7426 83.2039C49.0412 81.1387 27.0986 119.361 22.3687 143.344C22.3687 143.344 32.7945 140.846 37.2996 140.846C41.8047 140.846 48.3334 147.907 59.5753 146.259Z" fill="#6D1715"/>
<path d="M59.5753 146.259C59.5753 146.259 62.6148 144.51 59.6669 140.638C59.6669 140.638 64.4718 127.006 64.6633 122.592C63.7972 135.699 62.4815 146.134 59.5753 146.259Z" fill="#821F1A"/>
<path d="M57.8559 75.9352L52.8875 76.8193L54.2983 84.7473L59.2666 83.8632L57.8559 75.9352Z" fill="#FFC673"/>
<path d="M32.8029 153.828H41.5382C41.5382 153.828 49.4409 126.897 56.6274 125.232C74.4312 121.068 71.0504 154.561 71.0504 154.561H80.6102L74.1398 150.914C74.1398 150.914 79.5776 89.1579 67.6528 83.5786C64.0221 81.8715 51.4977 82.6043 48.1501 86.4932C44.8026 90.3821 51.5893 110.801 48.5832 121.26C45.577 131.719 38.9401 151.155 38.9401 151.155L32.8029 153.828Z" fill="#C93C31"/>
<path d="M74.6311 118.495H49.1994V122.326L75.3306 121.277L74.6311 118.495Z" fill="#AF2D27"/>
<path d="M40.3308 151.471C40.3308 151.471 48.7414 130.895 51.7476 120.435C54.0043 112.608 49.7657 99.817 48.908 92.2641C48.6165 89.7659 47.1259 89.3995 47.2425 91.9476C47.5589 99.8003 50.8732 113.374 48.5998 121.268C45.5937 131.719 38.9568 151.163 38.9568 151.163L32.8195 153.836H34.918L40.3308 151.471Z" fill="#AF2D27"/>
<path d="M72.4743 154.561C72.7325 151.538 74.4479 126.997 62.29 125.282C73.6485 128.838 71.0504 154.561 71.0504 154.561H72.4743Z" fill="#AF2D27"/>
<path d="M76.2217 115.272L47.7588 115.547V121.01L76.2217 120.735V115.272Z" fill="#FCDE63"/>
<path d="M54.3041 116.347C54.3041 116.055 54.3041 115.772 54.3041 115.514L47.7338 115.572V121.035L54.6538 120.968C54.4122 119.44 54.2952 117.894 54.3041 116.347Z" fill="#EAC23F"/>
<path d="M43.2703 106.504C41.9629 104.414 36.2171 101.949 34.1102 103.006C33.1276 104.372 39.14 107.853 43.2703 106.504Z" fill="#D3A62A"/>
<path d="M33.7605 106.879C33.7605 106.879 42.9206 84.6945 54.6538 83.4121C54.6538 83.4121 53.1382 87.9255 50.9482 89.8075C43.5118 96.1945 36.9749 108.96 35.8174 109.002C34.6599 109.044 33.7605 106.879 33.7605 106.879Z" fill="#C93C31"/>
<path d="M34.6349 108.328C34.7681 108.52 34.9426 108.681 35.1457 108.797C35.3488 108.914 35.5755 108.984 35.809 109.002C36.8666 108.944 42.4709 98.2597 49.0828 91.5146C43.0205 96.8857 37.4745 104.838 34.6349 108.328Z" fill="#AF2D27"/>
<path d="M34.1436 103.031C35.5259 105.613 38.0741 106.57 43.2037 106.554L33.9437 113.382C33.9437 113.382 37.4662 116.147 35.7257 118.962C34.3268 121.202 27.6149 121.46 28.8307 116.463C30.0281 111.78 31.8132 107.267 34.1436 103.031Z" fill="#FCDE63"/>
<path d="M30.9209 117.179C32.0155 112.899 33.5969 108.759 35.6342 104.838C35.017 104.346 34.5093 103.731 34.1436 103.031C31.8106 107.277 30.0254 111.802 28.8307 116.497C28.1645 119.22 29.8883 120.369 31.8036 120.485C30.9792 119.828 30.5295 118.795 30.9209 117.179Z" fill="#EAC23F"/>
<path d="M52.0807 84.1782L62.5898 84.5862L63.2893 82.3795C57.9098 82.6959 55.4116 82.8541 52.0807 84.1782Z" fill="#FFC673"/>
<path d="M50.0072 85.0442L45.1357 80.6308L60.1166 84.4697L50.0072 85.0442Z" fill="#FCDE63"/>
<path d="M71.0587 154.561L74.1398 150.914L75.2723 141.037L70.4924 142.728L71.0587 154.561Z" fill="#FCDE63"/>
<path d="M41.5632 153.712L38.7402 150.78L41.9962 139.014L46.1016 142.728L41.5632 153.712Z" fill="#FCDE63"/>
<path d="M63.0145 79.5898L64.8715 82.8458L62.5482 84.5863L63.0145 79.5898Z" fill="#FCDE63"/>
<path d="M57.5601 102.765L61.6738 91.7144L67.3114 101.682L57.5601 102.765Z" fill="#FCDE63"/>
<path d="M34.8181 118.429C35.0263 118.179 34.6099 118.004 34.1519 117.521C33.6939 117.038 33.3191 116.405 33.1526 116.688C32.9861 116.971 33.1526 117.521 33.5939 118.037C34.0353 118.553 34.5932 118.687 34.8181 118.429Z" fill="#EAC23F"/>
<g style="mix-blend-mode:multiply" opacity="0.5">
<path d="M74.9725 86.8096C72.8624 85.4607 70.5832 84.3967 68.1941 83.6452C67.8943 83.562 67.6028 83.4787 67.303 83.4121H67.2364H67.1032C66.3601 83.1793 65.5958 83.0203 64.8215 82.9374L64.8798 82.8874L63.0228 79.6398L58.5593 79.8979L57.8682 75.9841L52.8718 76.8668L53.463 80.1977L45.1357 80.6807L49.9905 85.0692C47.9319 86.3085 46.0709 87.8496 44.4695 89.6409C47.9563 90.195 51.4813 90.4734 55.0119 90.4737C63.4974 90.3904 70.9254 88.9498 74.9725 86.8096Z" fill="#66493D"/>
</g>
<path d="M73.4653 35.2301C78.4617 35.5715 85.1985 34.7637 87.7467 26.7528C87.7467 26.7528 78.2285 29.301 79.1529 19.5497L73.4653 35.2301Z" fill="#49241B"/>
<path d="M16.1232 48.762L5.49748 42.2417L2 52.2262L15.1655 50.7273L16.1232 48.762Z" fill="#AD2D27"/>
<path d="M14.7075 53.5752L3.55722 59.1545L10.1775 67.3986L15.865 55.4322L14.7075 53.5752Z" fill="#AD2D27"/>
<path d="M45.4771 75.7593C36.0755 76.3505 22.7601 73.5359 22.3687 68.2064C22.3687 68.2064 14.566 69.3888 12.8922 63.4598C11.2184 57.5307 14.8824 55.1324 14.8824 55.1324L13.2169 46.5386C13.2169 46.5386 10.0609 46.0889 10.9602 48.762C11.8596 51.4351 -0.897898 43.2743 11.4432 38.3861C11.4432 38.3861 8.77013 31.1247 13.7166 29.351C13.7166 29.351 0.23461 26.3864 3.99024 18.9751C7.74588 11.5637 15.865 13.937 15.865 13.937C15.865 13.937 13.0837 7.8664 21.8024 6.08435C30.5212 4.3023 31.0957 9.82333 31.0957 9.82333C31.0957 9.82333 32.095 3.89425 41.2551 4.63539C41.2551 4.63539 39.9227 -0.544219 46.2515 0.047022C52.5803 0.638264 55.4116 4.04415 55.4116 4.04415C55.4116 4.04415 65.4044 7.00868 63.4725 1.54594C63.4725 1.54594 94.4086 -5.56561 78.037 32.6569L45.4771 75.7593Z" fill="#49241B"/>
<path d="M52.0807 51.3684C35.6175 51.3684 20.9364 46.1805 11.335 38.0447C11.4099 38.2612 11.4515 38.3944 11.4515 38.3944C-0.889596 43.2826 11.8762 51.4351 10.9686 48.7703C10.0609 46.1056 13.2253 46.5469 13.2253 46.5469L14.8907 55.1407C14.8907 55.1407 11.2267 57.5057 12.9005 63.4681C14.5743 69.4305 22.377 68.2147 22.377 68.2147C22.7684 73.5442 36.0838 76.3588 45.4854 75.7676L64.6383 50.3359C60.4883 51.0281 56.2879 51.3735 52.0807 51.3684Z" fill="#381913"/>
<path d="M37.9242 74.6184C52.1223 81.0388 78.5783 79.4982 82.3756 56.9728C85.1985 40.2015 68.827 -1.52684 32.4115 32.557C20.8281 43.3825 33.3358 72.5616 37.9242 74.6184Z" fill="#FFC673"/>
<path d="M82.5254 53.925L29.372 54.5079V56.598L82.4089 56.7146L82.5254 53.925Z" fill="#DD9F4E"/>
<path style="mix-blend-mode:multiply" opacity="0.3" d="M37.9242 74.6184C52.1223 81.0388 78.5783 79.4982 82.3756 56.9728C85.1985 40.2015 68.827 -1.52684 32.4115 32.557C20.8281 43.3825 33.3358 72.5616 37.9242 74.6184Z" fill="url(#paint0_linear_4_1432)"/>
<path d="M12.7339 48.9285L81.9425 41.9502L83.5997 55.3656L14.4744 55.8985L12.7339 48.9285Z" fill="#C93C31"/>
<path d="M28.6142 47.3297L12.7256 48.9285L14.4744 55.8985L30.6544 55.7736C29.5351 53.0836 28.8466 50.234 28.6142 47.3297Z" fill="#AD2D27"/>
<path d="M31.1041 56.3982C27.7731 54.7327 24.0342 53.1672 22.6185 57.7888C21.2029 62.4105 27.8064 65.1835 31.5704 63.9511C35.3344 62.7186 31.1041 56.3982 31.1041 56.3982Z" fill="#FFC673"/>
<path d="M40.4224 53.6335C41.4383 50.8855 44.4029 42.8662 57.4185 52.4177L40.4224 53.6335Z" fill="#FFECDE"/>
<path d="M79.1279 51.6349C77.5374 49.2616 72.9074 42.3166 64.2552 51.8264L79.1279 51.6349Z" fill="#FFECDE"/>
<path d="M74.9892 49.245C74.9775 48.7886 74.8306 48.346 74.5672 47.9732C74.3038 47.6003 73.9357 47.3141 73.5095 47.1506C73.0833 46.9871 72.6181 46.9537 72.1729 47.0547C71.7277 47.1557 71.3225 47.3865 71.0086 47.718C70.6947 48.0494 70.4862 48.4665 70.4094 48.9165C70.3327 49.3665 70.3912 49.8292 70.5776 50.2459C70.764 50.6626 71.0698 51.0147 71.4563 51.2575C71.8429 51.5003 72.2928 51.623 72.7492 51.6099C73.0517 51.6024 73.3498 51.5352 73.6263 51.4121C73.9029 51.289 74.1524 51.1126 74.3605 50.8928C74.5686 50.6731 74.7313 50.4144 74.8392 50.1316C74.9471 49.8488 74.9981 49.5475 74.9892 49.245Z" fill="#3A291E"/>
<path d="M50.0988 50.5024C50.0808 50.0126 49.9191 49.5389 49.6339 49.1403C49.3487 48.7417 48.9526 48.4358 48.4948 48.2607C48.037 48.0856 47.5379 48.049 47.0595 48.1555C46.581 48.262 46.1445 48.5068 45.8042 48.8596C45.464 49.2124 45.235 49.6574 45.1458 50.1393C45.0566 50.6213 45.1111 51.1188 45.3026 51.57C45.4941 52.0212 45.814 52.4061 46.2226 52.6767C46.6312 52.9474 47.1104 53.0919 47.6006 53.0922C47.9365 53.0924 48.269 53.0249 48.5782 52.8937C48.8874 52.7624 49.167 52.5702 49.4003 52.3284C49.6335 52.0867 49.8155 51.8003 49.9356 51.4866C50.0556 51.1728 50.1111 50.8381 50.0988 50.5024Z" fill="#3A291E"/>
<path d="M49.4326 49.8779C49.4239 49.6157 49.3125 49.3676 49.1224 49.1868C48.9324 49.0061 48.6789 48.9074 48.4166 48.9119C48.2869 48.9151 48.159 48.944 48.0405 48.9969C47.9219 49.0499 47.8151 49.1258 47.726 49.2202C47.637 49.3147 47.5675 49.4258 47.5217 49.5473C47.4759 49.6688 47.4546 49.7981 47.459 49.9278C47.4611 50.0572 47.489 50.1849 47.541 50.3034C47.5931 50.4219 47.6682 50.5288 47.762 50.618C47.8558 50.7071 47.9664 50.7767 48.0874 50.8226C48.2084 50.8686 48.3373 50.8899 48.4666 50.8855C48.5964 50.8833 48.7244 50.8555 48.8434 50.8036C48.9623 50.7516 49.0698 50.6767 49.1596 50.583C49.2494 50.4893 49.3198 50.3788 49.3666 50.2577C49.4135 50.1367 49.4359 50.0076 49.4326 49.8779Z" fill="#705241"/>
<path d="M74.5645 48.787C74.5607 48.6071 74.503 48.4326 74.3989 48.2858C74.2949 48.1391 74.1492 48.0269 73.9807 47.9638C73.8122 47.9008 73.6287 47.8897 73.4539 47.932C73.279 47.9743 73.1209 48.068 72.9999 48.2011C72.8789 48.3342 72.8006 48.5006 72.7751 48.6786C72.7496 48.8567 72.7781 49.0384 72.8569 49.2001C72.9357 49.3618 73.0612 49.4961 73.2172 49.5858C73.3731 49.6754 73.5524 49.7163 73.7318 49.703C73.9622 49.688 74.1778 49.5841 74.3332 49.4132C74.4885 49.2423 74.5715 49.0178 74.5645 48.787Z" fill="#705241"/>
<path d="M64.6133 56.0234C64.4801 55.0241 62.8229 54.3996 60.9077 54.6411C58.9924 54.8826 57.5351 55.8902 57.66 56.8978C57.7849 57.9054 59.442 58.5633 61.3656 58.2885C63.2893 58.0137 64.7382 57.031 64.6133 56.0234Z" fill="#DD9F4E"/>
<path d="M64.5717 55.5821C64.4634 54.7493 63.0728 54.2164 61.4656 54.4246C59.8584 54.6328 58.6343 55.4738 58.7426 56.3149C58.8508 57.1559 60.2415 57.6806 61.8487 57.4807C63.4558 57.2809 64.6633 56.4315 64.5717 55.5821Z" fill="#FFC673"/>
<path d="M39.4398 45.3478C41.0469 44.5817 48.4416 43.8156 50.0654 42.9245C51.6893 42.0335 49.674 40.0599 49.674 40.0599L39.4398 45.3478Z" fill="#49241B"/>
<path d="M77.6873 40.3514C76.1633 39.9516 69.8845 40.7427 68.3107 40.2265C66.7368 39.7102 67.8527 37.3868 67.8527 37.3868L77.6873 40.3514Z" fill="#49241B"/>
<path d="M29.8633 57.5473C27.7981 56.4898 25.4248 55.5155 24.5421 58.4217C23.6594 61.328 27.7981 63.06 30.1631 62.2856C32.5281 61.5112 29.8633 57.5473 29.8633 57.5473Z" fill="#DD9F4E"/>
<path d="M31.0291 59.4377C30.1048 58.9713 29.0556 58.5383 28.6642 59.829C28.2728 61.1198 30.1048 61.8859 31.1624 61.5445C32.22 61.203 31.0291 59.4377 31.0291 59.4377Z" fill="#FFC673"/>
<path d="M53.5963 61.0865L66.7201 60.9033C66.7201 60.9033 61.424 75.3595 53.5963 61.0865Z" fill="#3F2B1A"/>
<path d="M54.9786 61.6527L56.8689 64.3341L63.664 64.484L66.1622 61.2863L54.9786 61.6527Z" fill="#FFECDE"/>
<path d="M54.5289 61.2613C54.5289 61.0032 54.2624 60.7867 53.896 60.77C53.5296 60.7534 53.2299 60.9449 53.2215 61.203C53.2132 61.4612 53.488 61.6777 53.8544 61.6944C54.2208 61.711 54.5206 61.5361 54.5289 61.2613Z" fill="#3F2B1A"/>
<path d="M67.6361 61.1614C67.6361 60.9116 67.3613 60.6868 66.9949 60.6701C66.6285 60.6535 66.3288 60.845 66.3204 61.1031C66.3121 61.3613 66.5952 61.5778 66.9533 61.5944C67.3114 61.6111 67.6195 61.4196 67.6361 61.1614Z" fill="#3F2B1A"/>
<path d="M48.0336 59.8707C48.0336 58.9297 46.5263 58.2052 44.661 58.2052C42.7957 58.2052 41.3301 58.9713 41.3301 59.8707C41.3301 60.77 42.8373 61.5361 44.661 61.5361C46.4847 61.5361 48.0336 60.8283 48.0336 59.8707Z" fill="#EFAC5E"/>
<path d="M77.604 59.7291C77.604 58.7881 76.0967 58.0636 74.273 58.0636C72.4494 58.0636 70.9005 58.8214 70.9005 59.7291C70.9005 60.6368 72.416 61.3946 74.273 61.3946C76.13 61.3946 77.604 60.7034 77.604 59.7291Z" fill="#EFAC5E"/>
<path d="M58.7176 101.84L61.857 93.4132L66.1539 101.016L58.7176 101.84Z" fill="#C93C31"/>
<path d="M66.4953 117.912C66.5649 117.432 66.4859 116.941 66.2689 116.507C66.0519 116.072 65.7073 115.714 65.2812 115.481C64.8552 115.248 64.368 115.151 63.8851 115.203C63.4022 115.254 62.9466 115.452 62.5795 115.77C62.2123 116.088 61.9511 116.511 61.8308 116.981C61.7106 117.452 61.737 117.948 61.9067 118.403C62.0763 118.858 62.3811 119.25 62.78 119.527C63.1789 119.804 63.653 119.953 64.1387 119.952C64.721 119.992 65.2953 119.799 65.7366 119.417C66.1779 119.035 66.4505 118.494 66.4953 117.912Z" fill="#C93C31"/>
<path d="M65.8124 117.912C65.8564 117.577 65.7973 117.236 65.643 116.936C65.4887 116.635 65.2466 116.388 64.9487 116.228C64.6508 116.068 64.3114 116.003 63.9754 116.041C63.6395 116.078 63.323 116.217 63.068 116.439C62.8129 116.661 62.6314 116.955 62.5476 117.283C62.4638 117.61 62.4817 117.956 62.5988 118.273C62.7159 118.59 62.9267 118.864 63.2033 119.058C63.4798 119.253 63.8089 119.358 64.147 119.361C64.5592 119.387 64.9648 119.249 65.2764 118.978C65.5879 118.707 65.7804 118.324 65.8124 117.912Z" fill="#FCDE63"/>
<path d="M44.4612 28.6181C47.9337 30.4252 60.6995 23.7633 55.8446 17.9342L47.5173 18.6253C47.5173 18.6253 50.9898 26.2615 44.4612 28.6181Z" fill="#49241B"/>
</g>
<defs>
<filter id="filter0_d_4_1432" x="0" y="0" width="93.7466" height="162.561" filterUnits="userSpaceOnUse" color-interpolation-filters="sRGB">
<feFlood flood-opacity="0" result="BackgroundImageFix"/>
<feColorMatrix in="SourceAlpha" type="matrix" values="0 0 0 0 0 0 0 0 0 0 0 0 0 0 0 0 0 0 127 0" result="hardAlpha"/>
<feOffset dx="2" dy="4"/>
<feGaussianBlur stdDeviation="2"/>
<feComposite in2="hardAlpha" operator="out"/>
<feColorMatrix type="matrix" values="0 0 0 0 0 0 0 0 0 0 0 0 0 0 0 0 0 0 0.25 0"/>
<feBlend mode="normal" in2="BackgroundImageFix" result="effect1_dropShadow_4_1432"/>
<feBlend mode="normal" in="SourceGraphic" in2="effect1_dropShadow_4_1432" result="shape"/>
</filter>
<linearGradient id="paint0_linear_4_1432" x1="17797.6" y1="7066.85" x2="17637" y2="8432.34" gradientUnits="userSpaceOnUse">
<stop stop-color="#E55C00"/>
<stop offset="1" stop-color="#B73400"/>
</linearGradient>
</defs>
</svg>
