<svg width="103" height="160" viewBox="0 0 103 160" fill="none" xmlns="http://www.w3.org/2000/svg">
<g filter="url(#filter0_d_4_1426)">
<path d="M37.2566 66.3694L31.2672 67.192L32.4036 75.4667L38.3931 74.6441L37.2566 66.3694Z" fill="#EFA26F"/>
<path d="M23.3796 113.046C23.3796 116.893 23.8043 138.269 25.2033 151.851L26.5356 151.593C26.5356 151.593 26.444 127.052 28.3843 115.286L23.3796 113.046Z" fill="#FABE82"/>
<path d="M26.6939 139.227C26.8937 131.366 27.3517 121.498 28.3593 115.244L23.3629 113.004C23.3629 115.836 23.5878 128.168 24.2706 139.893C25.0523 139.585 25.8647 139.362 26.6939 139.227Z" fill="#EFA26F"/>
<path d="M45.6969 114.578C46.6295 118.417 54.1991 143.016 56.664 151.468L58.088 151.626C58.088 151.626 53.9243 127.544 51.0014 114.029L45.6969 114.578Z" fill="#FABE82"/>
<path d="M55.6897 138.269C54.274 130.492 52.467 120.899 51.0014 114.029L45.6969 114.578C46.3131 117.076 49.8605 128.735 52.875 138.811C53.7935 138.539 54.7361 138.358 55.6897 138.269Z" fill="#EFA26F"/>
<path d="M16.9759 78.5124C13.7782 80.4943 -3.46777 87.9389 9.14815 101.829L10.5305 99.847C10.5305 99.847 -0.295035 90.6869 17.6004 82.2264L16.9759 78.5124Z" fill="#FABE82"/>
<path d="M12.3958 85.2325C14.0351 84.0758 15.7773 83.0723 17.6004 82.2347L16.9758 78.5207C15.9849 79.1286 13.6449 80.2694 11.2716 81.9599C11.748 83.0132 12.1244 84.1089 12.3958 85.2325Z" fill="#EFA26F"/>
<path d="M56.0561 120.482L41.9829 123.022L43.9814 135.488L57.4884 134.514L56.0561 120.482Z" fill="#A06E40"/>
<path d="M55.623 118.001L41.5499 120.54L43.5484 133.007L45.4803 130.225L51.1096 132.465L54.2241 130.542L57.0554 132.032L55.623 118.001Z" fill="#724A29"/>
<path d="M33.997 121.831L19.7239 122.889L20.4067 135.496L33.947 135.938L33.997 121.831Z" fill="#A06E40"/>
<path d="M33.997 121.831L19.7239 122.889L20.2152 133.356L23.2464 131.732L27.3434 134.106L30.7992 131.299L33.9303 134.431L33.997 121.831Z" fill="#724A29"/>
<path d="M15.5186 109.881C15.5186 109.881 19.8238 103.528 19.5074 102.62C19.1909 101.712 8.93167 93.7514 8.93167 93.7514L9.49792 96.5161L8.04897 97.0823C8.74847 98.0317 7.07464 98.3481 7.07464 98.3481C7.90737 99.7471 5.7839 102.212 4.68469 101.887C6.20027 103.886 12.4708 111.014 15.5186 109.881Z" fill="#FFF8CC"/>
<path d="M15.8433 103.644C16.4481 103.817 17.0832 103.856 17.7044 103.758C18.3257 103.66 18.9182 103.428 19.4408 103.078C19.5002 102.933 19.5175 102.774 19.4907 102.62C19.1826 101.721 8.91499 93.7514 8.91499 93.7514L9.48124 96.5161L8.24881 96.9991C10.6721 99.389 14.6858 103.186 15.8433 103.644Z" fill="#EAE0AD"/>
<path d="M17.4255 98.4647C16.701 98.6895 16.3513 99.1142 16.8593 100.688C17.3672 102.262 18.3499 103.353 19.0744 103.128C19.7988 102.903 19.9737 101.463 19.4657 99.872C18.9578 98.2815 18.1417 98.2398 17.4255 98.4647Z" fill="#EAE0AD"/>
<path d="M7.60758 105.268L11.3299 99.9886L13.2868 97.074L12.0377 96.0581L10.3556 99.0143L6.46674 104.036L7.60758 105.268Z" fill="#8097AA"/>
<path d="M11.3299 99.9886L13.2868 97.074L12.0377 96.0581L10.3556 99.0143L11.3299 99.9886Z" fill="#607889"/>
<path d="M14.4277 107.175L15.2437 105.751L11.6047 102.712L10.314 104.344L10.8553 106.6L11.6713 105.676L14.4277 107.175Z" fill="#8097AA"/>
<path d="M16.6844 101.079C16.6844 101.079 16.9093 100.821 16.6844 99.922L17.9585 101.163L16.6844 101.079Z" fill="#B5A871"/>
<path d="M17.8419 132.057C15.1022 118.109 12.8871 93.8097 16.1098 72.8914C26.8937 74.7734 36.4868 75.0732 47.8536 72.8914C47.8536 72.8914 53.9659 75.8559 56.7805 75.6394C55.5564 115.836 58.3711 122.114 60.2447 130.367L53.1248 126.136L50.7183 131L44.4894 126.136L41.6581 130.791L37.3445 126.37L34.9546 131.016L30.3746 127.635L26.9104 132.074L22.3719 127.844L17.8419 132.057Z" fill="#F4D589"/>
<path d="M47.7371 116.527C43.2986 114.445 28.7257 112.921 29.5585 107.233C30.3912 101.546 45.497 95.1587 45.497 95.1587L47.7371 116.527Z" fill="#E5C47A"/>
<path d="M38.3022 75.0315C35.371 78.9704 34.6881 102.237 29.2754 100.288C23.8626 98.3398 17.4505 74.0656 17.4505 74.0656L38.3022 75.0315Z" fill="#E5C47A"/>
<path opacity="0.5" d="M15.7267 107.941C20.8147 111.947 31.3405 112.688 30.2496 118.334C29.1587 123.98 17.9668 128.693 17.9668 128.693C15.9932 119.708 15.3853 114.711 15.7267 107.941Z" fill="#E5C47A"/>
<path d="M47.8537 72.8914C47.8537 72.8914 53.9743 75.8642 56.7889 75.6477C56.4308 89.1464 56.0645 114.861 60.403 130.558L53.2665 126.32L50.8765 131.191C46.4547 109.482 45.3638 95.3835 47.8537 72.8914Z" fill="#C1A868"/>
<path d="M55.9145 84.2332C55.9145 81.327 55.2567 78.9787 54.4489 78.9787C53.6412 78.9787 52.9916 81.327 52.9916 84.2332C52.9916 87.1395 53.6495 89.4878 54.4573 89.4878C55.265 89.4878 55.9145 87.1312 55.9145 84.2332Z" fill="#685730"/>
<path d="M54.4739 78.9037C58.0297 81.327 79.0396 91.7029 64.6166 101.721L63.2676 99.9719C63.2676 99.9719 75.8169 93.7014 53.8993 81.7184C53.458 80.1112 53.5829 79.4617 54.4739 78.9037Z" fill="#FABE82"/>
<path d="M66.2654 97.0657C65.5618 98.3075 64.523 99.3262 63.2676 100.005L64.6166 101.754C66.3893 100.633 67.8547 99.0871 68.8802 97.2572C68.005 97.2612 67.1307 97.1971 66.2654 97.0657Z" fill="#EFA26F"/>
<path d="M61.9268 83.7336C58.8124 81.4519 55.7896 79.5699 54.5988 78.7372C53.7661 78.9537 53.0333 80.4027 53.2498 81.4353C55.877 82.822 58.4085 84.3827 60.8276 86.1069C61.1222 85.2845 61.49 84.4902 61.9268 83.7336Z" fill="#EFA26F"/>
<path d="M54.0075 106.934C54.0075 106.934 60.1198 111.564 61.0358 111.297C61.9518 111.031 70.479 101.213 70.479 101.213L67.6977 101.629L67.1981 100.147C66.2238 100.805 65.9906 99.1059 65.9906 99.1059C64.55 99.8887 62.2017 97.6153 62.5847 96.5327C60.4862 97.965 53.0332 103.886 54.0075 106.934Z" fill="#FFF8CC"/>
<path d="M27.7015 109.898L27.6265 92.2358L34.2135 92.2691L32.0483 110.498L27.7015 109.898Z" fill="#3F3131"/>
<path d="M34.3967 86.4817C34.4547 85.8393 34.325 85.1939 34.0232 84.6239C33.7215 84.0538 33.2609 83.5836 32.6971 83.2704C32.1333 82.9571 31.4907 82.8143 30.8473 82.8592C30.2039 82.9041 29.5874 83.1348 29.0726 83.5234C28.5578 83.9119 28.1669 84.4416 27.9473 85.048C27.7277 85.6544 27.6889 86.3116 27.8356 86.9396C27.9823 87.5677 28.3081 88.1396 28.7736 88.5861C29.2391 89.0325 29.8242 89.3342 30.4578 89.4545C31.374 89.5804 32.3028 89.3383 33.041 88.7812C33.7791 88.2241 34.2666 87.3973 34.3967 86.4817Z" fill="#3F3131"/>
<path d="M33.3557 93.3683C33.414 93.0436 33.3557 93.0103 33.2142 92.9853C32.7589 92.9604 32.3024 92.9968 31.8568 93.0935L27.5016 92.2608C27.3268 96.2746 27.3184 111.763 27.6932 114.028C28.6341 113.063 27.7514 112.097 29.1837 112.363C29.8916 112.496 29.1255 111.53 29.9582 111.689C31.3905 111.955 32.4564 113.429 32.9644 113.97C32.4897 116.593 33.6056 118.667 34.0719 118.75C34.2551 118.75 34.3967 118.434 34.43 118.25C34.4217 118.284 31.7735 102.037 33.3557 93.3683Z" fill="#3F3131"/>
<path d="M36.3952 85.2325C36.5118 84.6163 35.6708 83.8835 35.1628 83.7919C34.2801 83.6253 33.4474 84.6246 32.6063 84.4747C32.3815 84.4331 32.1483 84.3498 31.9151 84.3082C31.6544 84.2431 31.3789 84.2756 31.1407 84.3998L29.4752 88.4969H29.3753C30.3163 88.9299 29.8 89.8792 31.1573 88.9382C31.2154 88.8993 31.281 88.8732 31.35 88.8618C31.4189 88.8503 31.4895 88.8536 31.557 88.8716C33.0809 89.1464 32.9644 90.2206 33.1642 89.1297C33.2808 88.4802 33.8721 88.7134 34.4883 88.8216C34.6382 88.8216 34.763 88.8216 34.8213 88.5468C34.9046 88.1055 34.4799 87.5642 34.5799 87.0396C34.5799 86.8314 34.7464 86.8064 34.888 86.8314C35.0295 86.8564 35.1711 86.9313 35.271 86.948C35.3709 86.9646 35.3709 86.948 35.3793 86.948V86.898C35.1294 86.0653 33.7138 86.5649 34.6798 85.8904C35.4209 85.5656 36.262 85.9737 36.3952 85.2325Z" fill="#3F3131"/>
<path d="M27.1768 87.9642C27.2727 87.8871 27.3426 87.7823 27.3769 87.6641C27.32 87.7704 27.253 87.8709 27.1768 87.9642Z" fill="#3F3131"/>
<path d="M26.9437 88.1388C25.9361 88.4885 24.3289 88.322 24.0374 89.9042C23.8626 90.8701 25.17 90.8785 26.5357 88.6051C26.7847 88.4326 26.9994 88.2152 27.1685 87.9639C27.0987 88.0285 27.0235 88.087 26.9437 88.1388Z" fill="#3F3131"/>
<path d="M26.5856 150.194L27.4517 151.943H19.9321L26.5856 150.194Z" fill="#E27664"/>
<path d="M57.4301 149.761L55.8562 151.943H64.0504L57.4301 149.761Z" fill="#E27664"/>
<path d="M60.2114 107.6C60.0048 108.194 59.9313 108.827 59.9961 109.453C60.0608 110.079 60.2623 110.683 60.5862 111.222C60.7262 111.289 60.8819 111.314 61.0358 111.297C61.9518 111.039 70.4541 101.213 70.4541 101.213L67.6727 101.629L67.248 100.363C64.7332 102.662 60.7277 106.426 60.2114 107.6Z" fill="#EAE0AD"/>
<path d="M53.433 33.2782C53.8577 30.73 42.7656 26.3332 29.5335 23.6351C17.1924 21.1369 7.50763 21.0287 7.17454 23.2771C6.84144 25.5255 15.9099 29.4726 28.1595 32.2706C41.3333 35.2768 52.9916 35.8181 53.433 33.2782Z" fill="#3D4944"/>
<path d="M65.0746 38.0997L63.584 39.3655L85.3434 58.9847L86.0345 57.7356L65.0746 38.0997Z" fill="#839E95"/>
<path d="M68.4388 35.6598L66.9482 36.9256L88.7159 56.5448L89.3988 55.304L68.4388 35.6598Z" fill="#839E95"/>
<path d="M21.0979 47.9427C23.9375 48.4673 18.708 41.2808 21.9307 41.7638C25.1533 42.2468 20.4068 31.4878 24.4289 33.0034C28.451 34.519 26.3858 26.4415 32.1733 27.1243C37.9608 27.8072 44.581 37.4086 39.1849 42.2634C33.7888 47.1183 41.6831 54.2715 36.5451 53.6469C31.4072 53.0224 44.3562 63.6397 36.6451 62.0825C28.9339 60.5253 41.0336 72.958 31.4405 68.1531C21.8474 63.3483 21.073 71.0427 15.3354 64.206C9.59787 57.3692 0.912452 66.6376 3.67713 57.5441C6.44181 48.4506 -1.48585 48.7255 3.96023 45.8858C9.40632 43.0462 10.1724 45.3862 13.1203 50.0495C16.0682 54.7128 14.0946 46.6519 21.0979 47.9427Z" fill="#FFB95C"/>
<path d="M36.5451 53.6469C41.6831 54.2715 33.7804 47.1183 39.1849 42.2634C44.5893 37.4086 38.1606 28.1069 32.4564 27.1743C32.6563 27.7155 32.8394 28.2652 32.9893 28.8397C35.9788 40.3065 27.2934 52.5061 13.5866 56.0785C10.4154 56.9078 7.13017 57.2144 3.86027 56.9862C3.81864 57.161 3.76869 57.3276 3.71872 57.5108C0.954044 66.6709 9.63114 57.3692 15.377 64.1727C21.1229 70.9761 21.8806 63.3399 31.4821 68.1198C41.0835 72.8997 28.9839 60.4837 36.6867 62.0492C44.3895 63.6147 31.4071 53.0307 36.5451 53.6469Z" fill="#EA9F44"/>
<path d="M57.8298 50.0911C59.3204 47.5929 50.7599 49.9829 52.3504 47.1183C53.941 44.2537 42.1994 44.9115 45.0224 41.7055C47.8454 38.4995 39.5929 37.5418 42.2577 32.3955C44.9225 27.2492 56.2726 24.4013 58.9124 31.1714C61.5522 37.9415 71.0287 33.07 68.6387 37.6584C66.2488 42.2468 80.755 33.8861 76.558 40.548C72.3611 47.2099 88.2829 40.2815 80.3969 47.5679C72.5109 54.8544 79.4393 58.2769 71.012 61.2331C62.5848 64.1893 68.1807 75.5728 60.6278 69.7437C53.0749 63.9145 50.5517 71.4508 49.8023 65.3552C49.0528 59.2595 51.5344 59.3678 56.9472 58.2353C62.3599 57.1028 54.1492 56.1951 57.8298 50.0911Z" fill="#EA9F44"/>
<path d="M21.7808 22.0696C23.1715 26.1001 23.1465 29.3727 21.4727 29.6475C19.7989 29.9223 22.9299 36.4676 19.2492 36.9423C13.5533 37.6667 17.2923 46.9351 13.0287 43.8956C8.76513 40.8561 11.0302 51.5484 7.34948 45.8109C3.66879 40.0734 1.33711 34.1526 2.90265 30.1055C4.4682 26.0584 3.58551 20.1127 5.46749 25.3839C7.34947 30.6551 10.797 21.8864 12.629 25.742C14.4611 29.5976 15.5686 17.5396 16.9259 21.6782C18.2833 25.8169 20.515 18.3223 21.7808 22.0696Z" fill="#FFB95C"/>
<path d="M21.1312 33.5364C21.0562 31.696 20.5899 29.7891 21.4726 29.6475C23.1381 29.3727 23.1381 26.1001 21.7808 22.0696C20.4817 18.3223 18.2833 25.8086 16.9259 21.6782C16.0265 18.9385 15.2604 23.3437 14.2695 25.4505C17.3187 27.3934 19.7103 30.2117 21.1312 33.5364Z" fill="#CE7D25"/>
<path d="M59.6535 59.3095C74.5844 40.015 64.3252 16.6985 60.1282 14.167C53.841 10.3697 39.1682 1.40947 26.6023 15.2578C-24.2778 71.3425 41.3334 83.0674 59.6535 59.3095Z" fill="#FABE82"/>
<path style="mix-blend-mode:multiply" opacity="0.3" d="M59.6535 59.3095C74.5844 40.015 64.3252 16.6985 60.1282 14.167C53.841 10.3697 38.4771 2.05901 25.9361 15.9074C-24.944 71.9837 41.3334 83.0674 59.6535 59.3095Z" fill="url(#paint0_linear_4_1426)"/>
<path d="M67.2397 40.7812C68.7636 27.4574 63.0178 15.9074 60.1365 14.1336C53.8494 10.3364 39.1766 1.37615 26.6106 15.2245C21.6593 20.5374 17.2852 26.3602 13.5617 32.5954L67.2397 40.7812Z" fill="#F49C60"/>
<path d="M35.0628 18.2307C35.3127 22.511 36.7283 25.4672 38.6353 24.9759C40.5423 24.4845 40.0093 31.8126 44.1397 30.6051C50.5267 28.7481 50.5267 38.8409 53.7494 34.1692C56.9721 29.4976 59.1622 40.2232 60.6112 33.3865C62.0601 26.5497 62.0018 20.0627 58.6126 17.1565C55.2234 14.2502 53.1582 11.7104 53.3997 17.298C53.6412 22.8857 46.6795 13.1927 46.3881 17.5062C46.0966 21.8198 39.7262 11.3607 40.0676 15.7159C40.409 20.0711 34.838 14.2502 35.0628 18.2307Z" fill="#FFB95C"/>
<path d="M7.29114 23.0606C7.29114 23.0606 36.3869 20.146 72.6108 42.1052C72.6108 42.1052 69.7629 15.9323 67.0232 12.9595C64.2835 9.98662 47.2291 -6.42658 25.3864 2.76681C22.9549 3.7994 7.29114 23.0606 7.29114 23.0606Z" fill="#839E95"/>
<path d="M55.5315 33.2283C61.4143 35.8069 67.12 38.7724 72.6109 42.1052C72.6109 42.1052 69.7629 15.9324 67.0232 12.9595C63.996 9.8422 60.5351 7.17779 56.7473 5.04852C56.4142 12.1268 55.9062 24.0182 55.5315 33.2283Z" fill="#6C877D"/>
<path d="M29.5335 1.31787C28.1177 1.7233 26.7274 2.2127 25.3698 2.78348C22.9466 3.79942 7.28281 23.0606 7.28281 23.0606C7.28281 23.0606 8.78174 22.9107 11.5131 22.9357C16.6428 16.7401 24.8202 6.87221 29.5335 1.31787Z" fill="#6C877D"/>
<path d="M65.2994 36.9006C65.2994 36.9006 62.3182 10.3281 65.4076 12.1434C68.4971 13.9588 71.1619 39.9068 71.1619 39.9068L65.2994 36.9006Z" fill="#839E95"/>
<path d="M74.4262 40.6896C49.6107 26.3665 30.8909 21.7865 6.14198 22.0946L6.07535 23.6102C28.7091 23.5102 47.0126 28.2152 74.3596 42.2051L74.4262 40.6896Z" fill="#B4CCC3"/>
<path d="M52.8834 32.4288C51.8591 36.5925 52.3588 39.8402 54.3157 39.9234C56.2726 40.0067 53.6162 46.8601 57.9131 46.9267C64.575 47.0183 61.5938 56.6697 66.0572 53.1473C70.5207 49.6248 68.7637 57.9521 72.1612 51.8482C75.5588 45.7443 78.0736 42.1385 75.7003 38.3163C73.327 34.494 72.0863 31.5128 70.7039 36.9256C69.3216 42.3384 65.4827 31.0215 63.9421 35.0603C62.4016 39.099 59.3954 27.2326 58.4211 31.4962C57.4468 35.7598 53.8244 28.5649 52.8834 32.4288Z" fill="#FFB95C"/>
<path d="M75.7003 38.3246C74.8676 36.9672 74.1597 35.7265 73.5435 34.9187C72.4027 41.9553 66.5652 47.1849 59.7618 46.8851C58.4961 46.8274 57.2466 46.5775 56.0561 46.144C56.2833 46.4132 56.5682 46.6278 56.8897 46.772C57.2111 46.9161 57.5609 46.9861 57.9131 46.9767C64.575 47.0683 61.5938 56.7197 66.0572 53.1972C70.5207 49.6748 69.4465 60.5836 72.844 54.4797C76.2416 48.3757 78.0736 42.1469 75.7003 38.3246Z" fill="#EA9F44"/>
<path d="M9.11481 27.9987C32.1316 30.6718 50.7932 34.1526 70.7372 46.5187L67.5062 51.0904L61.7853 53.522C57.1553 49.4666 53.5246 52.8891 53.5246 52.8891L42.1661 49.0752L34.3383 50.5908L25.6446 46.8601L17.0008 49.4832L11.8462 45.4112L8.29875 47.3681C8.29875 47.3681 5.39249 39.7652 9.11481 27.9987Z" fill="#3F3131"/>
<path d="M8.29879 47.3348L11.8462 45.3778L17.0009 49.4499L25.6446 46.8268L34.3384 50.5908L42.1911 49.1085L48.3533 51.1903C50.9749 47.598 52.4862 43.3162 52.7002 38.8742C52.7002 38.4245 52.7002 37.9665 52.7002 37.5168C39.0184 32.154 25.1117 29.889 9.09818 28.032C5.39251 39.7652 8.29879 47.3348 8.29879 47.3348Z" fill="#5E4949"/>
<path d="M95.5777 62.8903C97.8511 61.2248 92.6132 56.2867 90.5147 54.4463C90.2882 54.2452 90.0003 54.1266 89.6979 54.11C89.3955 54.0934 89.0963 54.1796 88.8492 54.3547L84.2858 57.6024C84.1459 57.702 84.0309 57.8325 83.9497 57.9838C83.8685 58.1352 83.8233 58.3032 83.8176 58.4748C83.812 58.6465 83.846 58.8171 83.9171 58.9734C83.9882 59.1298 84.0945 59.2676 84.2275 59.3761C88.4245 62.7987 91.1975 66.0213 95.5777 62.8903Z" fill="#77644D"/>
<path d="M22.1805 53.3305L33.3308 53.6719C33.3308 53.6719 32.6729 61.0999 29.9998 60.6835C27.3268 60.2672 22.1805 53.3305 22.1805 53.3305Z" fill="#3F2B1A"/>
<path d="M23.9875 53.7218L27.2351 57.7939L32.0483 57.8772C32.0483 57.8772 33.2891 53.9883 32.7228 53.98C31.9401 53.9717 23.9875 53.7218 23.9875 53.7218Z" fill="#FFECDE"/>
<path d="M12.3459 42.1385C16.2544 42.3898 20.1462 42.8541 24.0042 43.5292C24.0042 43.5292 23.1714 34.9187 19.2159 33.5364C17.0342 32.687 12.1877 34.1359 12.3459 42.1385Z" fill="#3F3131"/>
<path d="M28.8423 44.1537C32.8724 44.4298 36.8858 44.9106 40.867 45.5944C40.867 45.5944 41.2833 37.6084 37.2529 36.0845C35.1544 35.2934 29.8333 36.6591 28.8423 44.1537Z" fill="#3F3131"/>
<path d="M28.3676 44.5118C32.8144 44.67 40.1509 45.4611 40.1509 45.4611C40.1509 45.4611 40.4839 37.9665 37.2612 36.7341C35.1544 35.918 30.5078 36.7424 28.3676 44.5118Z" fill="#FFECDE"/>
<path d="M12.4125 42.1468C16.0599 42.4133 23.3796 43.5125 23.3796 43.5125C23.3796 43.5125 22.4219 35.2518 18.7329 34.1776C16.5178 33.5364 12.579 34.8354 12.4125 42.1468Z" fill="#FFECDE"/>
<path d="M17.742 39.149C17.8086 37.6418 16.9093 36.3843 15.7767 36.3344C14.6442 36.2844 13.6366 37.4586 13.57 38.9658C13.5034 40.4731 14.4027 41.7222 15.5353 41.7721C16.6678 41.8221 17.6754 40.6479 17.742 39.149Z" fill="#87ABC1"/>
<path d="M35.829 41.2308C35.829 39.7236 34.8547 38.5161 33.6972 38.5411C32.5397 38.5661 31.632 39.7902 31.657 41.2974C31.6819 42.8047 32.6313 44.0038 33.7888 43.9788C34.9463 43.9539 35.854 42.7297 35.829 41.2308Z" fill="#87ABC1"/>
<path d="M33.7804 42.0219C33.7807 41.8081 33.6987 41.6024 33.5515 41.4474C33.4042 41.2923 33.2029 41.1999 32.9893 41.1892C32.7761 41.2186 32.5807 41.3241 32.4392 41.4864C32.2978 41.6487 32.2199 41.8566 32.2199 42.0719C32.2199 42.2872 32.2978 42.4952 32.4392 42.6574C32.5807 42.8197 32.7761 42.9252 32.9893 42.9546C33.1041 42.9497 33.2166 42.9211 33.3198 42.8706C33.423 42.8202 33.5146 42.7489 33.5889 42.6613C33.6632 42.5737 33.7186 42.4717 33.7515 42.3617C33.7845 42.2516 33.7943 42.136 33.7804 42.0219Z" fill="#C4E3F2"/>
<path d="M15.3937 39.7152C15.3821 39.5677 15.3285 39.4266 15.2391 39.3085C15.1498 39.1905 15.0286 39.1006 14.8897 39.0493C14.7509 38.9981 14.6002 38.9877 14.4557 39.0195C14.3111 39.0512 14.1787 39.1236 14.074 39.2283C13.9694 39.3329 13.8969 39.4654 13.8652 39.61C13.8334 39.7545 13.8438 39.9051 13.895 40.044C13.9463 40.1829 14.0362 40.3041 14.1543 40.3934C14.2723 40.4827 14.4134 40.5364 14.5609 40.548C14.7818 40.548 14.9936 40.4602 15.1498 40.3041C15.306 40.1479 15.3937 39.9361 15.3937 39.7152Z" fill="#C4E3F2"/>
<path d="M28.0096 49.0002C28.0512 47.951 26.2525 47.0267 23.9791 46.9267C21.7058 46.8268 19.8155 47.5929 19.8155 48.6422C19.8155 49.6914 21.5726 50.6157 23.8459 50.7157C26.1193 50.8156 28.0096 50.0495 28.0096 49.0002Z" fill="#EFA460"/>
<path d="M26.3441 48.5423C26.3441 47.7095 25.0034 47.035 23.2796 46.9601C21.5559 46.8851 20.1152 47.468 20.0819 48.2674C20.0486 49.0669 21.4226 49.7747 23.1464 49.858C24.8701 49.9412 26.2858 49.3417 26.3441 48.5423Z" fill="#FABE82"/>
<path d="M47.1042 52.7975C47.1542 51.6067 44.8974 50.5408 42.0495 50.4159C39.2015 50.291 36.8616 51.157 36.8116 52.3478C36.7616 53.5386 39.0183 54.5962 41.858 54.7211C44.6976 54.846 47.0459 53.9883 47.1042 52.7975Z" fill="#EFA16C"/>
<path d="M16.5095 50.9489C16.5595 49.758 14.7691 48.7171 12.5041 48.6172C10.239 48.5173 8.34039 49.4 8.34039 50.5824C8.34039 51.7649 10.0808 52.8142 12.3375 52.9141C14.5942 53.014 16.4512 52.1313 16.5095 50.9489Z" fill="#EFA16C"/>
<path d="M66.4986 52.3645C65.9989 50.266 63.3675 49.1002 60.6694 49.758C57.9714 50.4159 56.1477 52.656 56.6557 54.7544C57.1637 56.8529 59.7785 58.0104 62.4848 57.3526C65.1912 56.6947 67.0065 54.463 66.4986 52.3645Z" fill="#FABE82"/>
<path d="M64.8331 52.7142C64.4833 51.2653 62.6763 50.4659 60.7943 50.9239C58.9124 51.3819 57.6716 52.9307 58.0213 54.3797C58.3711 55.8287 60.1865 56.6364 62.0684 56.1701C63.9504 55.7037 65.1912 54.1715 64.8331 52.7142Z" fill="#EFA16C"/>
<path d="M60.403 54.0716C60.2459 53.7031 59.9548 53.4079 59.5885 53.2456C59.2222 53.0833 58.808 53.066 58.4294 53.1972C58.2356 53.2219 58.0486 53.2846 57.8792 53.3817C57.7097 53.4789 57.5611 53.6086 57.4419 53.7633C57.3227 53.9181 57.2354 54.0949 57.1847 54.2836C57.1341 54.4723 57.1213 54.6691 57.147 54.8627C57.3009 55.2321 57.5898 55.529 57.9549 55.693C58.32 55.857 58.7338 55.8757 59.1122 55.7454C59.5048 55.6935 59.861 55.4884 60.1029 55.1747C60.3447 54.8611 60.4526 54.4645 60.403 54.0716Z" fill="#FABE82"/>
<path d="M54.4822 55.0626C56.4308 53.8801 55.2317 58.8265 57.1636 56.5365C59.0956 54.2465 57.8631 51.2403 57.8631 51.2403L52.2422 52.2562C50.56 52.9474 49.0028 58.3852 54.4822 55.0626Z" fill="#EA9F44"/>
<path d="M15.6185 23.0189C20.032 17.7227 30.0165 0.0437707 34.9546 1.3012C39.8927 2.55863 30.3662 24.9342 30.3662 24.9342L15.6185 23.0189Z" fill="#B4CCC3"/>
<path d="M34.1885 53.4637C34.1118 53.3191 33.984 53.2083 33.83 53.1528C33.676 53.0974 33.5069 53.1014 33.3557 53.1639C33.2499 53.2176 33.1621 53.3012 33.1032 53.4042C33.0443 53.5072 33.0168 53.6252 33.0242 53.7437C33.0315 53.8621 33.0735 53.9758 33.1447 54.0708C33.2159 54.1657 33.3134 54.2377 33.425 54.2779C33.5367 54.3181 33.6577 54.3248 33.7731 54.297C33.8884 54.2693 33.9932 54.2083 34.0744 54.1218C34.1556 54.0352 34.2096 53.9267 34.2299 53.8098C34.2502 53.6929 34.2358 53.5726 34.1885 53.4637Z" fill="#3F2B1A"/>
<path d="M22.7384 53.6635C22.7702 53.5012 22.7364 53.3329 22.6443 53.1955C22.5521 53.0582 22.4093 52.9629 22.2471 52.9307C22.086 52.8889 21.9149 52.9104 21.7693 52.991C21.6236 53.0716 21.5145 53.205 21.4643 53.3638C21.4323 53.5271 21.4659 53.6964 21.5579 53.8352C21.6499 53.9739 21.7927 54.0708 21.9556 54.1049C22.1179 54.1486 22.2908 54.1268 22.4372 54.0443C22.5836 53.9617 22.6918 53.825 22.7384 53.6635Z" fill="#3F2B1A"/>
<path d="M93.7956 63.2483C95.4611 62.3323 91.722 58.8098 90.2315 57.4941C90.0661 57.3493 89.8615 57.2569 89.6435 57.2287C89.4255 57.2005 89.2041 57.2378 89.0074 57.3359L85.6764 59.1513C85.5757 59.2015 85.4897 59.277 85.4269 59.3704C85.3641 59.4638 85.3267 59.572 85.3183 59.6842C85.3154 59.8014 85.3403 59.9176 85.3909 60.0232C85.4416 60.1289 85.5166 60.221 85.6098 60.2921C88.541 62.757 90.5146 64.9971 93.7956 63.2483Z" fill="#5B4A38"/>
<path d="M41.6331 31.0049C40.409 30.1222 40.1176 32.0208 40.0926 32.1957C40.0926 32.0375 40.2092 30.7301 38.3189 30.1138C36.4286 29.4976 37.3196 31.5794 37.4861 32.0791C37.3196 31.696 36.6534 30.4136 35.6208 30.1305C34.3967 29.8474 34.7881 31.4379 35.1628 32.7369L42.1578 35.5516C42.4076 35.6016 42.9239 31.9292 41.6331 31.0049Z" fill="#FFB95C"/>
<path d="M18.0168 26.3915C16.5095 26.3915 17.3589 28.057 17.4422 28.2485C17.3672 28.1069 16.6927 26.9827 14.7941 27.5573C12.8955 28.1319 14.7941 29.3394 15.2688 29.6225C14.919 29.4143 13.6033 28.7065 12.629 29.1062C11.4549 29.5725 12.7289 30.6218 13.7448 31.4962L21.0729 29.7724C21.2561 29.6891 19.5907 26.4415 18.0168 26.3915Z" fill="#FFB95C"/>
<path d="M65.2995 109.448C65.1163 108.724 64.7082 108.349 63.1094 108.774C61.5105 109.199 60.3697 110.123 60.5529 110.856C60.7361 111.589 62.2184 111.838 63.7839 111.422C65.3494 111.006 65.4827 110.181 65.2995 109.448Z" fill="#EAE0AD"/>
<path d="M59.029 99.2891L64.1003 103.286L66.9066 105.393L67.9892 104.202L65.1329 102.37L60.328 98.2149L59.029 99.2891Z" fill="#8097AA"/>
<path d="M64.1003 103.286L66.9067 105.393L67.9892 104.202L65.1329 102.37L64.1003 103.286Z" fill="#607889"/>
<path d="M25.2365 150.952C24.2622 150.627 22.9715 149.978 24.104 149.22C25.2365 148.462 26.1526 150.519 26.1526 150.519L25.2365 150.952Z" fill="#E27664"/>
<path d="M58.2629 150.669C58.979 150.053 59.8617 149.003 58.6293 148.687C57.3968 148.37 57.3302 150.561 57.3302 150.561L58.2629 150.669Z" fill="#E27664"/>
<path d="M56.7639 106.001L58.1463 106.884L61.3773 103.419L59.8117 102.037L57.53 102.462L58.4044 103.32L56.7639 106.001Z" fill="#8097AA"/>
<path d="M62.7263 108.574C62.7263 108.574 62.9678 108.816 63.8838 108.632L62.5764 109.84L62.7263 108.574Z" fill="#B5A871"/>
</g>
<defs>
<filter id="filter0_d_4_1426" x="0" y="0" width="102.138" height="159.943" filterUnits="userSpaceOnUse" color-interpolation-filters="sRGB">
<feFlood flood-opacity="0" result="BackgroundImageFix"/>
<feColorMatrix in="SourceAlpha" type="matrix" values="0 0 0 0 0 0 0 0 0 0 0 0 0 0 0 0 0 0 127 0" result="hardAlpha"/>
<feOffset dx="2" dy="4"/>
<feGaussianBlur stdDeviation="2"/>
<feComposite in2="hardAlpha" operator="out"/>
<feColorMatrix type="matrix" values="0 0 0 0 0 0 0 0 0 0 0 0 0 0 0 0 0 0 0.25 0"/>
<feBlend mode="normal" in2="BackgroundImageFix" result="effect1_dropShadow_4_1426"/>
<feBlend mode="normal" in="SourceGraphic" in2="effect1_dropShadow_4_1426" result="shape"/>
</filter>
<linearGradient id="paint0_linear_4_1426" x1="40.6123" y1="59.1156" x2="43.1005" y2="71.3281" gradientUnits="userSpaceOnUse">
<stop stop-color="#C04B00"/>
<stop offset="1" stop-color="#B73400"/>
</linearGradient>
</defs>
</svg>
