<svg width="97" height="147" viewBox="0 0 97 147" fill="none" xmlns="http://www.w3.org/2000/svg">
<g filter="url(#filter0_d_37_199)">
<path d="M85.4567 92.5991C81.5761 93.8315 61.9985 95.8551 54.0959 83.9553L57.9265 82.7562C58.2252 82.6537 58.5492 82.6511 58.8496 82.7487C59.15 82.8463 59.4105 83.0389 59.5919 83.2974C61.4573 85.8872 67.9609 92.724 85.3151 91.7164L85.4567 92.5991Z" fill="#E2505E"/>
<path d="M85.2984 91.7164C83.1436 91.8452 80.9829 91.8452 78.8281 91.7164V92.5491C75.7386 92.9488 63.0061 91.8829 54.6788 84.7297C62.8396 95.7052 81.651 93.7566 85.4899 92.5491L85.2984 91.7164Z" fill="#C93A4F"/>
<path d="M56.0029 70.9314H50.7067V83.5306H56.0029V70.9314Z" fill="#FABE82"/>
<path d="M63.3226 109.429C63.3226 109.429 64.5634 92.7739 60.2498 84.4466C58.3262 80.7076 52.8718 80.1663 50.4485 80.7159C42.6208 82.473 45.4521 107.497 46.568 113.068C47.1009 115.791 50.7317 122.128 43.0122 130.297L44.1447 131.962C44.1447 131.962 50.8066 126.666 50.9482 120.945C51.0897 115.224 55.2701 113.734 58.1763 113.101C61.0825 112.468 68.2607 115.782 72.5493 122.927L74.4563 121.928C74.4563 121.928 69.5514 113.043 63.3226 109.429Z" fill="#E2505E"/>
<path d="M64.4801 109.495L46.1599 110.953L46.4181 112.568L64.4801 110.694V109.495Z" fill="#C93A4F"/>
<path d="M45.3938 104.008C45.5437 104.116 48.5332 89.0599 47.9503 82.4314C44.9108 86.4451 44.7443 96.3464 45.3938 104.008Z" fill="#C93A4F"/>
<path d="M62.6231 107.905C62.8812 108.055 63.1311 108.213 63.3809 108.371C63.5224 105.556 63.7473 97.5955 62.34 90.7837C62.1401 89.8094 62.6231 107.905 62.6231 107.905Z" fill="#C93A4F"/>
<path d="M73.5986 120.529L71.8581 121.437C67.5695 114.3 60.8744 111.669 57.9681 112.277C55.0619 112.885 50.3902 113.709 50.257 119.43C50.1238 125.151 43.4452 130.447 43.4452 130.447L43.2037 130.072L43.0122 130.28L44.1447 131.946C44.1447 131.946 50.8066 126.65 50.9482 120.929C51.0647 116.082 54.6538 113.559 59.009 113.567C63.3642 113.576 68.4772 116.124 72.5493 122.911L74.4563 121.911C74.4563 121.911 74.1482 121.42 73.5986 120.529Z" fill="#C93A4F"/>
<path d="M44.4528 123.652C44.4528 123.652 48.9412 121.154 52.6136 121.72C56.286 122.286 39.4647 136.826 39.4647 136.826L41.9629 138.758L35.4676 138.949L44.4528 123.652Z" fill="#FFCD5C"/>
<path d="M52.6136 121.72C51.5764 121.58 50.5231 121.62 49.4992 121.836C47.509 127.074 43.6201 132.171 36.5502 138.891L41.9879 138.733L39.4897 136.801C39.4897 136.801 56.286 122.303 52.6136 121.72Z" fill="#E8B246"/>
<path d="M68.2274 118.947C68.2274 118.947 68.752 116.524 73.5402 117.989C77.9454 119.347 80.2854 136.484 80.2854 136.484L86.1145 138.483L78.1452 138.666L68.2274 118.947Z" fill="#FFCD5C"/>
<path d="M79.8357 138.633L86.1228 138.483L80.2937 136.484C80.2937 136.484 77.9537 119.347 73.5485 117.989L73.1238 117.873C76.1116 124.527 78.3623 131.489 79.8357 138.633V138.633Z" fill="#E8B246"/>
<path d="M30.696 104.857C30.263 101.842 32.8695 83.7721 50.207 80.7576L51.3062 85.0629C51.3062 85.0629 35.7508 87.4195 31.5871 104.974L30.696 104.857Z" fill="#E2505E"/>
<path d="M32.1533 99.2943C31.4455 102.051 30.5711 103.966 30.696 104.857L31.6037 104.974C34.6682 92.0078 43.9615 87.3362 48.5998 85.779C43.9865 86.9032 37.0665 90.384 32.1533 99.2943Z" fill="#C93A4F"/>
<path d="M64.4218 107.205L45.5853 109.604L46.1016 111.577L64.63 110.02L64.4218 107.205Z" fill="#FFCD5C"/>
<path d="M31.7536 104.574C31.7536 104.574 35.0845 107.647 34.1602 108.563C33.2359 109.479 29.1638 109.953 30.2547 105.232C30.3713 104.632 31.7536 104.574 31.7536 104.574Z" fill="#FFCD5C"/>
<path d="M31.5121 105.565C31.5121 105.565 34.3767 101.401 35.9006 101.751C35.9006 101.751 30.7377 97.787 27.5233 99.0695L30.3963 105.365L31.5121 105.565Z" fill="#FFCD5C"/>
<path d="M49.749 80.8742L52.8717 83.3724L50.1653 83.8887L57.1353 93.5734L58.909 85.9705L57.2436 84.7214L58.1762 81.9151C58.1762 81.9151 54.2207 79.1005 49.749 80.8742Z" fill="#FFCD5C"/>
<path d="M51.8641 89.2681L55.4699 87.3279L59.7751 89.9593L57.1353 97.4539L51.8641 89.2681Z" fill="#FFCD5C"/>
<path d="M59.9537 106.796L53.9578 107.502L54.4812 111.951L60.4772 111.246L59.9537 106.796Z" fill="#FFCD5C"/>
<path d="M58.5098 108.037L55.9954 108.331L56.214 110.201L58.7284 109.906L58.5098 108.037Z" fill="#E2505E"/>
<g style="mix-blend-mode:multiply" opacity="0.5">
<path d="M60.9993 84.9629C60.483 84.4447 60.007 83.8879 59.5753 83.2974C59.4271 83.1005 59.2326 82.9432 59.009 82.8394C58.727 82.5783 58.4234 82.3415 58.1014 82.1316L58.1763 81.9151C57.4979 81.4674 56.7646 81.1091 55.9945 80.8492V74.129C54.7538 74.0457 53.4963 74.0041 52.139 74.0041H50.7067V80.5411C50.4243 80.6142 50.1463 80.7031 49.8739 80.8075C46.6673 81.375 43.6217 82.6307 40.947 84.4882C44.6175 85.2881 48.3658 85.6764 52.1223 85.6457C55.095 85.6614 58.064 85.433 60.9993 84.9629V84.9629Z" fill="#66493D"/>
</g>
<path d="M35.7507 12.3984C40.6306 5.90308 2.71615 -16.9555 2 26.6715C11.1518 14.0722 26.8321 24.2899 35.7507 12.3984Z" fill="#FFD683"/>
<path d="M35.7507 12.3984C36.6334 11.2243 33.6023 2.66375 19.2626 8.57616C9.46128 12.6149 2.83269 20.1762 2.29974 26.2884C11.4931 14.3054 26.932 24.165 35.7507 12.3984Z" fill="#F7C872"/>
<path d="M40.1892 12.8814C39.4314 11.0827 37.1331 10.3249 35.0513 11.216C32.9694 12.107 31.8952 14.2554 32.653 16.0541C33.4108 17.8528 35.7091 18.6106 37.791 17.7196C39.8728 16.8286 40.947 14.6885 40.1892 12.8814Z" fill="#B72E42"/>
<path d="M25.8162 48.0312L33.9687 59.1398L29.1471 63.9447L25.7079 61.9378L29.1138 58.6735L25.8162 48.0312Z" fill="#B72E42"/>
<path d="M22.2354 45.5912L22.6934 62.5707L29.1471 63.9447L22.2354 45.5912Z" fill="#E2505E"/>
<path d="M23.4929 50.1047L20.3785 63.5284L13.5917 63.0121L12.8672 59.0899L17.5722 59.5395L23.4929 50.1047Z" fill="#B72E42"/>
<path d="M23.0015 45.7994L10.4272 57.2162L13.5917 63.012L23.0015 45.7994Z" fill="#E2505E"/>
<path d="M29.0139 64.944C20.1203 56.7832 10.6938 29.1365 34.5349 15.388C58.3761 1.63955 104.968 28.6035 80.5102 59.1815C56.0528 89.7595 29.0139 64.944 29.0139 64.944Z" fill="#FFD683"/>
<path d="M48.8414 76.8687C60.7911 80.0748 79.4777 74.3705 82.9835 56.4501C86.4893 38.5297 81.4846 27.9206 61.907 25.0893C42.3294 22.258 27.6982 29.3779 25.5581 43.551C23.418 57.7242 30.6461 71.9556 48.8414 76.8687Z" fill="#FABE82"/>
<path style="mix-blend-mode:multiply" opacity="0.3" d="M48.8414 76.8687C60.7911 80.0748 79.4777 74.3705 82.9835 56.4501C86.4893 38.5297 81.4846 27.9206 61.907 25.0893C42.3294 22.258 27.6982 29.3779 25.5581 43.551C23.418 57.7242 30.6461 71.9556 48.8414 76.8687Z" fill="url(#paint0_linear_37_199)"/>
<path d="M83.6246 47.9729L27.465 43.2263L27.9729 58.5902L84.1242 63.3368L83.6246 47.9729Z" fill="#E2505E"/>
<path d="M78.9946 54.6431C78.9993 57.4256 78.4854 60.1846 77.4791 62.7789L84.1409 63.3368L83.6413 47.9728L77.8954 47.4899C78.629 49.8032 78.9998 52.2162 78.9946 54.6431Z" fill="#CE4155"/>
<path d="M33.6106 52.353C33.61 49.4486 34.1757 46.572 35.2761 43.8841L27.4817 43.2263L27.9813 58.5902L34.6432 59.1481C33.9652 56.9465 33.6172 54.6566 33.6106 52.353V52.353Z" fill="#CE4155"/>
<path d="M72.8574 61.0467C74.5229 59.2314 74.5812 48.6723 68.9269 48.2309C61.782 47.673 59.1423 56.042 60.3247 60.0475L72.8574 61.0467Z" fill="#A82A3D"/>
<path d="M52.2306 59.323C53.5296 57.491 53.4547 47.8396 46.3015 46.3824C39.3732 44.9667 38.0491 54.285 39.8561 58.3404L52.2306 59.323Z" fill="#A82A3D"/>
<path d="M34.6432 79.5751C30.8376 69.0993 23.1348 44.6003 42.1378 25.1809L36.8666 20.5342C26.7239 29.9775 13.3252 41.9771 34.6432 79.5751Z" fill="#FFD683"/>
<path d="M74.8143 80.7409C79.411 70.4816 88.9708 46.4406 70.7672 26.0386L76.4881 21.6834C86.2394 31.6429 99.1885 44.3421 74.8143 80.7409Z" fill="#FFD683"/>
<path d="M39.9977 58.2488C38.7486 56.3085 40.1309 46.5905 45.4105 47.0069C50.69 47.4233 53.871 55.609 52.2056 59.2231L39.9977 58.2488Z" fill="#FFECDE"/>
<path d="M72.1329 61.0468C73.6318 59.3147 73.7984 49.5051 68.6438 49.1303C63.4891 48.7556 59.1672 56.3751 60.2248 60.189L72.1329 61.0468Z" fill="#FFECDE"/>
<path d="M49.649 64.5859L62.7396 65.1689C62.7396 65.1689 54.5539 79.0672 49.649 64.5859Z" fill="#4C311B"/>
<path d="M50.7899 65.0522L52.039 67.8586L58.5926 68.4831L61.5072 65.3603L50.7899 65.0522Z" fill="#FFEBDC"/>
<path d="M58.7342 32.5756L31.7037 32.1176L33.4607 30.4271L58.9424 29.1697L58.7342 32.5756Z" fill="#A06950"/>
<path d="M62.0152 32.8587L83.0251 35.5568L82.1008 33.7165L62.1901 29.4861L62.0152 32.8587Z" fill="#A06950"/>
<path d="M57.5767 31.0517L60.508 38.0716L64.1137 31.9677L61.2075 26.1719L57.5767 31.0517Z" fill="#E2505E"/>
<path d="M58.6343 30.5604L60.2414 34.0745L61.6321 31.0101L60.9743 27.3294L58.6343 30.5604Z" fill="#FF8F9F"/>
<path d="M68.6687 56.9747C68.9019 55.2426 68.0525 53.6937 66.7701 53.5188C65.4877 53.344 64.2719 54.618 64.0304 56.3585C63.7889 58.0989 64.6466 59.6478 65.929 59.8143C67.2114 59.9808 68.4355 58.7151 68.6687 56.9747Z" fill="#542B1B"/>
<path d="M49.3243 55.0011C49.241 53.244 48.1335 51.8784 46.8261 51.9366C45.5187 51.9949 44.5527 53.4605 44.6277 55.2176C44.7026 56.9747 45.8268 58.3404 47.1259 58.2738C48.4249 58.2071 49.4076 56.7498 49.3243 55.0011Z" fill="#542B1B"/>
<path d="M48.4749 54.2433C48.4749 53.5938 48.0335 53.0858 47.5589 53.1108C47.0842 53.1358 46.7261 53.6604 46.7261 54.3099C46.7261 54.9594 47.1675 55.4591 47.6421 55.4424C48.1168 55.4258 48.5082 54.8845 48.4749 54.2433Z" fill="#B56C55"/>
<path d="M68.1025 55.8505C68.1025 55.2093 67.6611 54.7014 67.1781 54.7263C66.6951 54.7513 66.3454 55.276 66.3454 55.9255C66.3454 56.575 66.7784 57.0746 67.2614 57.058C67.7444 57.0413 68.1275 56.5001 68.1025 55.8505Z" fill="#B56C55"/>
<path d="M65.879 43.7425C65.879 43.7425 72.0579 45.8993 72.8907 45.6911L73.4403 45.0666C73.4403 45.0666 66.7784 42.2852 65.7375 41.3193L65.879 43.7425Z" fill="#FFD683"/>
<path d="M48.8663 42.4352C48.8663 42.4352 42.4709 43.118 41.7215 42.7266L41.3384 41.9938C41.3384 41.9938 48.3417 40.8113 49.5575 40.1035L48.8663 42.4352Z" fill="#FFD683"/>
<path d="M58.3844 61.7213C58.3844 60.9552 57.3102 60.3307 55.9945 60.3307C54.6788 60.3307 53.5962 60.9552 53.5962 61.7213C53.5962 62.4874 54.6704 63.1037 55.9945 63.1037C57.3185 63.1037 58.3844 62.4874 58.3844 61.7213Z" fill="#EA9C68"/>
<path d="M58.9424 61.1634C58.9424 60.3973 57.8682 59.7727 56.5441 59.7727C55.2201 59.7727 54.1542 60.3973 54.1542 61.1634C54.1542 61.9295 55.2201 62.554 56.5441 62.554C57.8682 62.554 58.9424 61.9295 58.9424 61.1634Z" fill="#FABE82"/>
<path d="M49.7823 65.2937C50.164 65.2937 50.4735 65.0588 50.4735 64.7691C50.4735 64.4794 50.164 64.2445 49.7823 64.2445C49.4006 64.2445 49.0911 64.4794 49.0911 64.7691C49.0911 65.0588 49.4006 65.2937 49.7823 65.2937Z" fill="#4C311B"/>
<path d="M62.7563 65.9932C63.138 65.9932 63.4475 65.7583 63.4475 65.4686C63.4475 65.1789 63.138 64.944 62.7563 64.944C62.3746 64.944 62.0651 65.1789 62.0651 65.4686C62.0651 65.7583 62.3746 65.9932 62.7563 65.9932Z" fill="#4C311B"/>
<path d="M21.6776 41.8023C22.0939 32.917 25.2833 17.0951 42.7707 14.7384C42.7707 14.7384 29.8633 19.5933 21.6776 41.8023Z" fill="#FFECB0"/>
<path d="M25.683 40.0452C26.0077 33.1335 28.4893 20.8257 42.0962 18.9937C42.0962 18.9937 32.0534 22.741 25.683 40.0452Z" fill="#FFECB0"/>
<path d="M34.5516 107.98C34.6765 107.53 34.5516 107.105 34.2185 107.022C33.8854 106.939 33.569 107.239 33.444 107.68C33.3191 108.121 33.444 108.554 33.7855 108.638C34.1269 108.721 34.435 108.421 34.5516 107.98Z" fill="#E8B246"/>
<path d="M33.7771 108.779C34.1851 108.563 34.3933 108.163 34.2434 107.88C34.1207 107.738 33.949 107.647 33.7623 107.625C33.5757 107.604 33.3878 107.653 33.2358 107.763C32.8278 107.98 32.6196 108.388 32.7695 108.663C32.9194 108.937 33.3691 108.996 33.7771 108.779Z" fill="#FFCD5C"/>
<path d="M32.0034 104.782C32.7945 105.032 35.0262 106.256 34.3101 107.13C33.4524 108.18 31.4538 104.607 32.0034 104.782Z" fill="#E8B246"/>
<path d="M31.3456 104.59C32.1783 104.724 34.5516 105.606 33.9771 106.581C33.2526 107.738 30.7544 104.491 31.3456 104.59Z" fill="#FFCD5C"/>
<path d="M32.4698 104.466L29.83 104.291L30.1464 105.781L32.4365 104.882L32.4698 104.466Z" fill="#E2505E"/>
<path d="M85.7148 92.1744C85.7148 92.1744 89.0458 94.9641 89.8285 93.8399C90.6113 92.7157 90.7529 88.3938 86.2394 90.509C85.6565 90.7171 85.7148 92.1744 85.7148 92.1744Z" fill="#FFCD5C"/>
<path d="M86.6725 91.7081C86.6725 91.7081 82.8502 95.572 83.3415 97.0709C83.3415 97.0709 79.003 92.5575 79.9606 88.9518L86.381 90.6172L86.6725 91.7081Z" fill="#FFCD5C"/>
<path d="M89.3122 94.3562C88.8875 94.5727 88.4795 94.5061 88.3462 94.2146C88.213 93.9232 88.5045 93.4902 88.9292 93.2737C89.3539 93.0571 89.7619 93.1238 89.8868 93.4235C90.0117 93.7233 89.7369 94.1314 89.3122 94.3562Z" fill="#E8B246"/>
<path d="M90.0284 93.3736C89.8452 93.8399 89.4788 94.1397 89.1956 94.0481C88.9125 93.9565 88.8209 93.4985 88.9958 93.0322C89.1707 92.5658 89.5454 92.2577 89.8285 92.3576C90.1116 92.4576 90.2032 92.9073 90.0284 93.3736Z" fill="#FFCD5C"/>
<path d="M85.9563 92.3826C86.2727 93.1487 87.6717 95.2055 88.4545 94.2812C89.4121 93.1653 85.7148 91.858 85.9563 92.3826Z" fill="#E8B246"/>
<path d="M85.7148 91.7413C85.923 92.5741 87.0055 94.8558 87.9049 94.048C88.9708 93.0737 85.5649 91.1751 85.7148 91.7413Z" fill="#FFCD5C"/>
<path d="M85.6898 92.9322L85.2818 90.2341L86.7724 90.2424L86.0979 92.8073L85.6898 92.9322Z" fill="#E2505E"/>
<path opacity="0.5" d="M45.4688 62.7122C45.5188 61.8212 43.8616 61.0051 41.7715 60.8885C39.6813 60.772 37.9325 61.3965 37.8826 62.2875C37.8326 63.1786 39.4898 63.953 41.5882 64.1112C43.6867 64.2694 45.4188 63.6033 45.4688 62.7122Z" fill="#DD7F33"/>
<path opacity="0.5" d="M72.5326 65.0023C72.5826 64.1112 70.9255 63.2952 68.8353 63.1786C66.7451 63.062 64.9964 63.6865 64.9464 64.5776C64.8964 65.4686 66.5536 66.243 68.6521 66.4013C70.7506 66.5595 72.4827 65.8933 72.5326 65.0023Z" fill="#DD7F33"/>
</g>
<defs>
<filter id="filter0_d_37_199" x="0" y="0.607117" width="96.2521" height="146.342" filterUnits="userSpaceOnUse" color-interpolation-filters="sRGB">
<feFlood flood-opacity="0" result="BackgroundImageFix"/>
<feColorMatrix in="SourceAlpha" type="matrix" values="0 0 0 0 0 0 0 0 0 0 0 0 0 0 0 0 0 0 127 0" result="hardAlpha"/>
<feOffset dx="2" dy="4"/>
<feGaussianBlur stdDeviation="2"/>
<feComposite in2="hardAlpha" operator="out"/>
<feColorMatrix type="matrix" values="0 0 0 0 0 0 0 0 0 0 0 0 0 0 0 0 0 0 0.25 0"/>
<feBlend mode="normal" in2="BackgroundImageFix" result="effect1_dropShadow_37_199"/>
<feBlend mode="normal" in="SourceGraphic" in2="effect1_dropShadow_37_199" result="shape"/>
</filter>
<linearGradient id="paint0_linear_37_199" x1="28065.9" y1="18435.1" x2="27945.3" y2="20871.5" gradientUnits="userSpaceOnUse">
<stop stop-color="#C04B00"/>
<stop offset="0.99" stop-color="#B73400"/>
</linearGradient>
</defs>
</svg>
